%TF.GenerationSoftware,KiCad,Pcbnew,(6.0.9)*%
%TF.CreationDate,2022-12-30T20:19:07-03:00*%
%TF.ProjectId,Controller - Power Supply - Outputs,436f6e74-726f-46c6-9c65-72202d20506f,rev?*%
%TF.SameCoordinates,Original*%
%TF.FileFunction,Copper,L2,Bot*%
%TF.FilePolarity,Positive*%
%FSLAX46Y46*%
G04 Gerber Fmt 4.6, Leading zero omitted, Abs format (unit mm)*
G04 Created by KiCad (PCBNEW (6.0.9)) date 2022-12-30 20:19:07*
%MOMM*%
%LPD*%
G01*
G04 APERTURE LIST*
%TA.AperFunction,NonConductor*%
%ADD10C,0.200000*%
%TD*%
%ADD11C,0.300000*%
%TA.AperFunction,NonConductor*%
%ADD12C,0.300000*%
%TD*%
%TA.AperFunction,ComponentPad*%
%ADD13R,1.200000X1.200000*%
%TD*%
%TA.AperFunction,ComponentPad*%
%ADD14C,1.200000*%
%TD*%
%TA.AperFunction,ComponentPad*%
%ADD15R,1.600000X1.600000*%
%TD*%
%TA.AperFunction,ComponentPad*%
%ADD16C,1.600000*%
%TD*%
%TA.AperFunction,ComponentPad*%
%ADD17R,3.960000X1.980000*%
%TD*%
%TA.AperFunction,ComponentPad*%
%ADD18O,3.960000X1.980000*%
%TD*%
%TA.AperFunction,ComponentPad*%
%ADD19O,1.600000X1.600000*%
%TD*%
%TA.AperFunction,ComponentPad*%
%ADD20R,2.800000X2.800000*%
%TD*%
%TA.AperFunction,ComponentPad*%
%ADD21O,2.800000X2.800000*%
%TD*%
%TA.AperFunction,ComponentPad*%
%ADD22R,1.980000X3.960000*%
%TD*%
%TA.AperFunction,ComponentPad*%
%ADD23O,1.980000X3.960000*%
%TD*%
%TA.AperFunction,ComponentPad*%
%ADD24R,1.700000X1.700000*%
%TD*%
%TA.AperFunction,ComponentPad*%
%ADD25O,1.700000X1.700000*%
%TD*%
%TA.AperFunction,ComponentPad*%
%ADD26C,2.000000*%
%TD*%
%TA.AperFunction,ComponentPad*%
%ADD27R,1.500000X1.500000*%
%TD*%
%TA.AperFunction,ComponentPad*%
%ADD28C,1.500000*%
%TD*%
%TA.AperFunction,ComponentPad*%
%ADD29R,2.400000X2.400000*%
%TD*%
%TA.AperFunction,ComponentPad*%
%ADD30C,2.400000*%
%TD*%
%TA.AperFunction,ViaPad*%
%ADD31C,1.600000*%
%TD*%
%TA.AperFunction,Conductor*%
%ADD32C,0.850000*%
%TD*%
G04 APERTURE END LIST*
D10*
X105000000Y-128500000D02*
X105000000Y-127500000D01*
X155250000Y-91250000D02*
X55250000Y-91250000D01*
X97000000Y-111000000D02*
X97000000Y-110000000D01*
X105000000Y-97500000D02*
X105000000Y-96500000D01*
X97000000Y-115250000D02*
X97000000Y-114250000D01*
X155250000Y-92750000D02*
X55250000Y-92750000D01*
X96500000Y-114750000D02*
X97500000Y-114750000D01*
X55250000Y-134250000D02*
X155250000Y-134250000D01*
X155250000Y-134250000D02*
X155250000Y-234250000D01*
X155250000Y-234250000D02*
X55250000Y-234250000D01*
X55250000Y-234250000D02*
X55250000Y-134250000D01*
X104500000Y-97000000D02*
X105500000Y-97000000D01*
X155250000Y-92000000D02*
X55250000Y-92000000D01*
X96500000Y-110500000D02*
X97500000Y-110500000D01*
X55250000Y-31750000D02*
X155250000Y-31750000D01*
X155250000Y-31750000D02*
X155250000Y-131750000D01*
X155250000Y-131750000D02*
X55250000Y-131750000D01*
X55250000Y-131750000D02*
X55250000Y-31750000D01*
X104500000Y-128000000D02*
X105500000Y-128000000D01*
D11*
D12*
X81928571Y-175658571D02*
X81928571Y-174658571D01*
X81928571Y-174944285D02*
X81857142Y-174801428D01*
X81785714Y-174730000D01*
X81642857Y-174658571D01*
X81500000Y-174658571D01*
X80428571Y-175587142D02*
X80571428Y-175658571D01*
X80857142Y-175658571D01*
X81000000Y-175587142D01*
X81071428Y-175444285D01*
X81071428Y-174872857D01*
X81000000Y-174730000D01*
X80857142Y-174658571D01*
X80571428Y-174658571D01*
X80428571Y-174730000D01*
X80357142Y-174872857D01*
X80357142Y-175015714D01*
X81071428Y-175158571D01*
X79928571Y-174658571D02*
X79357142Y-174658571D01*
X79714285Y-175658571D02*
X79714285Y-174372857D01*
X79642857Y-174230000D01*
X79500000Y-174158571D01*
X79357142Y-174158571D01*
D11*
D12*
X85464285Y-180908571D02*
X85464285Y-179908571D01*
X85464285Y-180051428D02*
X85392857Y-179980000D01*
X85250000Y-179908571D01*
X85035714Y-179908571D01*
X84892857Y-179980000D01*
X84821428Y-180122857D01*
X84821428Y-180908571D01*
X84821428Y-180122857D02*
X84750000Y-179980000D01*
X84607142Y-179908571D01*
X84392857Y-179908571D01*
X84250000Y-179980000D01*
X84178571Y-180122857D01*
X84178571Y-180908571D01*
X83464285Y-180908571D02*
X83464285Y-179908571D01*
X83464285Y-179408571D02*
X83535714Y-179480000D01*
X83464285Y-179551428D01*
X83392857Y-179480000D01*
X83464285Y-179408571D01*
X83464285Y-179551428D01*
X82892857Y-180908571D02*
X82107142Y-179908571D01*
X82892857Y-179908571D02*
X82107142Y-180908571D01*
X81892857Y-181051428D02*
X80750000Y-181051428D01*
X80107142Y-179408571D02*
X79821428Y-179408571D01*
X79678571Y-179480000D01*
X79535714Y-179622857D01*
X79464285Y-179908571D01*
X79464285Y-180408571D01*
X79535714Y-180694285D01*
X79678571Y-180837142D01*
X79821428Y-180908571D01*
X80107142Y-180908571D01*
X80250000Y-180837142D01*
X80392857Y-180694285D01*
X80464285Y-180408571D01*
X80464285Y-179908571D01*
X80392857Y-179622857D01*
X80250000Y-179480000D01*
X80107142Y-179408571D01*
D11*
D12*
X92035714Y-193408571D02*
X92178571Y-193337142D01*
X92250000Y-193194285D01*
X92250000Y-191908571D01*
X91464285Y-192408571D02*
X91464285Y-193908571D01*
X91464285Y-192480000D02*
X91321428Y-192408571D01*
X91035714Y-192408571D01*
X90892857Y-192480000D01*
X90821428Y-192551428D01*
X90750000Y-192694285D01*
X90750000Y-193122857D01*
X90821428Y-193265714D01*
X90892857Y-193337142D01*
X91035714Y-193408571D01*
X91321428Y-193408571D01*
X91464285Y-193337142D01*
X90321428Y-192408571D02*
X89750000Y-192408571D01*
X90107142Y-193408571D02*
X90107142Y-192122857D01*
X90035714Y-191980000D01*
X89892857Y-191908571D01*
X89750000Y-191908571D01*
X89607142Y-193551428D02*
X88464285Y-193551428D01*
X87821428Y-191908571D02*
X87535714Y-191908571D01*
X87392857Y-191980000D01*
X87250000Y-192122857D01*
X87178571Y-192408571D01*
X87178571Y-192908571D01*
X87250000Y-193194285D01*
X87392857Y-193337142D01*
X87535714Y-193408571D01*
X87821428Y-193408571D01*
X87964285Y-193337142D01*
X88107142Y-193194285D01*
X88178571Y-192908571D01*
X88178571Y-192408571D01*
X88107142Y-192122857D01*
X87964285Y-191980000D01*
X87821428Y-191908571D01*
D11*
D12*
X130964285Y-180837142D02*
X130821428Y-180908571D01*
X130535714Y-180908571D01*
X130392857Y-180837142D01*
X130321428Y-180694285D01*
X130321428Y-180622857D01*
X130392857Y-180480000D01*
X130535714Y-180408571D01*
X130750000Y-180408571D01*
X130892857Y-180337142D01*
X130964285Y-180194285D01*
X130964285Y-180122857D01*
X130892857Y-179980000D01*
X130750000Y-179908571D01*
X130535714Y-179908571D01*
X130392857Y-179980000D01*
X129464285Y-180908571D02*
X129607142Y-180837142D01*
X129678571Y-180694285D01*
X129678571Y-179408571D01*
D11*
D12*
X115178571Y-212750000D02*
X115178571Y-211892857D01*
X115178571Y-212321428D02*
X113678571Y-212321428D01*
X113892857Y-212178571D01*
X114035714Y-212035714D01*
X114107142Y-211892857D01*
X113678571Y-213678571D02*
X113678571Y-213821428D01*
X113750000Y-213964285D01*
X113821428Y-214035714D01*
X113964285Y-214107142D01*
X114250000Y-214178571D01*
X114607142Y-214178571D01*
X114892857Y-214107142D01*
X115035714Y-214035714D01*
X115107142Y-213964285D01*
X115178571Y-213821428D01*
X115178571Y-213678571D01*
X115107142Y-213535714D01*
X115035714Y-213464285D01*
X114892857Y-213392857D01*
X114607142Y-213321428D01*
X114250000Y-213321428D01*
X113964285Y-213392857D01*
X113821428Y-213464285D01*
X113750000Y-213535714D01*
X113678571Y-213678571D01*
X113678571Y-214678571D02*
X113678571Y-215607142D01*
X114250000Y-215107142D01*
X114250000Y-215321428D01*
X114321428Y-215464285D01*
X114392857Y-215535714D01*
X114535714Y-215607142D01*
X114892857Y-215607142D01*
X115035714Y-215535714D01*
X115107142Y-215464285D01*
X115178571Y-215321428D01*
X115178571Y-214892857D01*
X115107142Y-214750000D01*
X115035714Y-214678571D01*
D11*
D12*
X131000000Y-192658571D02*
X130428571Y-192658571D01*
X130785714Y-193658571D02*
X130785714Y-192372857D01*
X130714285Y-192230000D01*
X130571428Y-192158571D01*
X130428571Y-192158571D01*
X129928571Y-193658571D02*
X129928571Y-192658571D01*
X129928571Y-192944285D02*
X129857142Y-192801428D01*
X129785714Y-192730000D01*
X129642857Y-192658571D01*
X129500000Y-192658571D01*
D11*
D12*
X92214285Y-180837142D02*
X92071428Y-180908571D01*
X91785714Y-180908571D01*
X91642857Y-180837142D01*
X91571428Y-180694285D01*
X91571428Y-180622857D01*
X91642857Y-180480000D01*
X91785714Y-180408571D01*
X92000000Y-180408571D01*
X92142857Y-180337142D01*
X92214285Y-180194285D01*
X92214285Y-180122857D01*
X92142857Y-179980000D01*
X92000000Y-179908571D01*
X91785714Y-179908571D01*
X91642857Y-179980000D01*
X90714285Y-180908571D02*
X90857142Y-180837142D01*
X90928571Y-180694285D01*
X90928571Y-179408571D01*
D11*
D12*
X81035714Y-183087142D02*
X80892857Y-183158571D01*
X80607142Y-183158571D01*
X80464285Y-183087142D01*
X80392857Y-182944285D01*
X80392857Y-182872857D01*
X80464285Y-182730000D01*
X80607142Y-182658571D01*
X80821428Y-182658571D01*
X80964285Y-182587142D01*
X81035714Y-182444285D01*
X81035714Y-182372857D01*
X80964285Y-182230000D01*
X80821428Y-182158571D01*
X80607142Y-182158571D01*
X80464285Y-182230000D01*
X79750000Y-183158571D02*
X79750000Y-182158571D01*
X79750000Y-182444285D02*
X79678571Y-182301428D01*
X79607142Y-182230000D01*
X79464285Y-182158571D01*
X79321428Y-182158571D01*
D11*
D12*
X130892857Y-184908571D02*
X130535714Y-185908571D01*
X130178571Y-184908571D01*
X128964285Y-185837142D02*
X129107142Y-185908571D01*
X129392857Y-185908571D01*
X129535714Y-185837142D01*
X129607142Y-185765714D01*
X129678571Y-185622857D01*
X129678571Y-185194285D01*
X129607142Y-185051428D01*
X129535714Y-184980000D01*
X129392857Y-184908571D01*
X129107142Y-184908571D01*
X128964285Y-184980000D01*
X127678571Y-185837142D02*
X127821428Y-185908571D01*
X128107142Y-185908571D01*
X128250000Y-185837142D01*
X128321428Y-185765714D01*
X128392857Y-185622857D01*
X128392857Y-185194285D01*
X128321428Y-185051428D01*
X128250000Y-184980000D01*
X128107142Y-184908571D01*
X127821428Y-184908571D01*
X127678571Y-184980000D01*
D11*
D12*
X92107142Y-196158571D02*
X92250000Y-196087142D01*
X92321428Y-195944285D01*
X92321428Y-194658571D01*
X91535714Y-195158571D02*
X91535714Y-196658571D01*
X91535714Y-195230000D02*
X91392857Y-195158571D01*
X91107142Y-195158571D01*
X90964285Y-195230000D01*
X90892857Y-195301428D01*
X90821428Y-195444285D01*
X90821428Y-195872857D01*
X90892857Y-196015714D01*
X90964285Y-196087142D01*
X91107142Y-196158571D01*
X91392857Y-196158571D01*
X91535714Y-196087142D01*
X90392857Y-195158571D02*
X89821428Y-195158571D01*
X90178571Y-196158571D02*
X90178571Y-194872857D01*
X90107142Y-194730000D01*
X89964285Y-194658571D01*
X89821428Y-194658571D01*
X89678571Y-196301428D02*
X88535714Y-196301428D01*
X88178571Y-196158571D02*
X88178571Y-194658571D01*
D11*
D12*
X92321428Y-206158571D02*
X92321428Y-205158571D01*
X92321428Y-205444285D02*
X92250000Y-205301428D01*
X92178571Y-205230000D01*
X92035714Y-205158571D01*
X91892857Y-205158571D01*
X90607142Y-206158571D02*
X91464285Y-206158571D01*
X91035714Y-206158571D02*
X91035714Y-204658571D01*
X91178571Y-204872857D01*
X91321428Y-205015714D01*
X91464285Y-205087142D01*
D11*
D12*
X119535714Y-195587142D02*
X119392857Y-195658571D01*
X119107142Y-195658571D01*
X118964285Y-195587142D01*
X118892857Y-195444285D01*
X118892857Y-195372857D01*
X118964285Y-195230000D01*
X119107142Y-195158571D01*
X119321428Y-195158571D01*
X119464285Y-195087142D01*
X119535714Y-194944285D01*
X119535714Y-194872857D01*
X119464285Y-194730000D01*
X119321428Y-194658571D01*
X119107142Y-194658571D01*
X118964285Y-194730000D01*
X118250000Y-195658571D02*
X118250000Y-194658571D01*
X118250000Y-194944285D02*
X118178571Y-194801428D01*
X118107142Y-194730000D01*
X117964285Y-194658571D01*
X117821428Y-194658571D01*
D11*
D12*
X80321428Y-190837142D02*
X80464285Y-190908571D01*
X80750000Y-190908571D01*
X80892857Y-190837142D01*
X80964285Y-190765714D01*
X81035714Y-190622857D01*
X81035714Y-190194285D01*
X80964285Y-190051428D01*
X80892857Y-189980000D01*
X80750000Y-189908571D01*
X80464285Y-189908571D01*
X80321428Y-189980000D01*
X79892857Y-189908571D02*
X79321428Y-189908571D01*
X79678571Y-189408571D02*
X79678571Y-190694285D01*
X79607142Y-190837142D01*
X79464285Y-190908571D01*
X79321428Y-190908571D01*
D11*
D12*
X118821428Y-185837142D02*
X118964285Y-185908571D01*
X119250000Y-185908571D01*
X119392857Y-185837142D01*
X119464285Y-185765714D01*
X119535714Y-185622857D01*
X119535714Y-185194285D01*
X119464285Y-185051428D01*
X119392857Y-184980000D01*
X119250000Y-184908571D01*
X118964285Y-184908571D01*
X118821428Y-184980000D01*
X118392857Y-184908571D02*
X117821428Y-184908571D01*
X118178571Y-184408571D02*
X118178571Y-185694285D01*
X118107142Y-185837142D01*
X117964285Y-185908571D01*
X117821428Y-185908571D01*
D11*
D12*
X81035714Y-203658571D02*
X81178571Y-203587142D01*
X81250000Y-203444285D01*
X81250000Y-202158571D01*
X80535714Y-202301428D02*
X80464285Y-202230000D01*
X80321428Y-202158571D01*
X79964285Y-202158571D01*
X79821428Y-202230000D01*
X79750000Y-202301428D01*
X79678571Y-202444285D01*
X79678571Y-202587142D01*
X79750000Y-202801428D01*
X80607142Y-203658571D01*
X79678571Y-203658571D01*
D11*
D12*
X92321428Y-203658571D02*
X92321428Y-202658571D01*
X92321428Y-202944285D02*
X92250000Y-202801428D01*
X92178571Y-202730000D01*
X92035714Y-202658571D01*
X91892857Y-202658571D01*
X91464285Y-202301428D02*
X91392857Y-202230000D01*
X91250000Y-202158571D01*
X90892857Y-202158571D01*
X90750000Y-202230000D01*
X90678571Y-202301428D01*
X90607142Y-202444285D01*
X90607142Y-202587142D01*
X90678571Y-202801428D01*
X91535714Y-203658571D01*
X90607142Y-203658571D01*
D11*
D12*
X130071428Y-183337142D02*
X130214285Y-183408571D01*
X130500000Y-183408571D01*
X130642857Y-183337142D01*
X130714285Y-183265714D01*
X130785714Y-183122857D01*
X130785714Y-182694285D01*
X130714285Y-182551428D01*
X130642857Y-182480000D01*
X130500000Y-182408571D01*
X130214285Y-182408571D01*
X130071428Y-182480000D01*
X129642857Y-182408571D02*
X129071428Y-182408571D01*
X129428571Y-181908571D02*
X129428571Y-183194285D01*
X129357142Y-183337142D01*
X129214285Y-183408571D01*
X129071428Y-183408571D01*
D11*
D12*
X88892857Y-166178571D02*
X89178571Y-166178571D01*
X89321428Y-166250000D01*
X89392857Y-166321428D01*
X89535714Y-166535714D01*
X89607142Y-166821428D01*
X89607142Y-167392857D01*
X89535714Y-167535714D01*
X89464285Y-167607142D01*
X89321428Y-167678571D01*
X89035714Y-167678571D01*
X88892857Y-167607142D01*
X88821428Y-167535714D01*
X88750000Y-167392857D01*
X88750000Y-167035714D01*
X88821428Y-166892857D01*
X88892857Y-166821428D01*
X89035714Y-166750000D01*
X89321428Y-166750000D01*
X89464285Y-166821428D01*
X89535714Y-166892857D01*
X89607142Y-167035714D01*
X87892857Y-166821428D02*
X88035714Y-166750000D01*
X88107142Y-166678571D01*
X88178571Y-166535714D01*
X88178571Y-166464285D01*
X88107142Y-166321428D01*
X88035714Y-166250000D01*
X87892857Y-166178571D01*
X87607142Y-166178571D01*
X87464285Y-166250000D01*
X87392857Y-166321428D01*
X87321428Y-166464285D01*
X87321428Y-166535714D01*
X87392857Y-166678571D01*
X87464285Y-166750000D01*
X87607142Y-166821428D01*
X87892857Y-166821428D01*
X88035714Y-166892857D01*
X88107142Y-166964285D01*
X88178571Y-167107142D01*
X88178571Y-167392857D01*
X88107142Y-167535714D01*
X88035714Y-167607142D01*
X87892857Y-167678571D01*
X87607142Y-167678571D01*
X87464285Y-167607142D01*
X87392857Y-167535714D01*
X87321428Y-167392857D01*
X87321428Y-167107142D01*
X87392857Y-166964285D01*
X87464285Y-166892857D01*
X87607142Y-166821428D01*
X86821428Y-166178571D02*
X85892857Y-166178571D01*
X86392857Y-166750000D01*
X86178571Y-166750000D01*
X86035714Y-166821428D01*
X85964285Y-166892857D01*
X85892857Y-167035714D01*
X85892857Y-167392857D01*
X85964285Y-167535714D01*
X86035714Y-167607142D01*
X86178571Y-167678571D01*
X86607142Y-167678571D01*
X86750000Y-167607142D01*
X86821428Y-167535714D01*
D11*
D12*
X82928571Y-188087142D02*
X82785714Y-188158571D01*
X82500000Y-188158571D01*
X82357142Y-188087142D01*
X82285714Y-187944285D01*
X82285714Y-187872857D01*
X82357142Y-187730000D01*
X82500000Y-187658571D01*
X82714285Y-187658571D01*
X82857142Y-187587142D01*
X82928571Y-187444285D01*
X82928571Y-187372857D01*
X82857142Y-187230000D01*
X82714285Y-187158571D01*
X82500000Y-187158571D01*
X82357142Y-187230000D01*
X81000000Y-187158571D02*
X81000000Y-188158571D01*
X81642857Y-187158571D02*
X81642857Y-187944285D01*
X81571428Y-188087142D01*
X81428571Y-188158571D01*
X81214285Y-188158571D01*
X81071428Y-188087142D01*
X81000000Y-188015714D01*
X80285714Y-188158571D02*
X80285714Y-186658571D01*
X80285714Y-187230000D02*
X80142857Y-187158571D01*
X79857142Y-187158571D01*
X79714285Y-187230000D01*
X79642857Y-187301428D01*
X79571428Y-187444285D01*
X79571428Y-187872857D01*
X79642857Y-188015714D01*
X79714285Y-188087142D01*
X79857142Y-188158571D01*
X80142857Y-188158571D01*
X80285714Y-188087142D01*
D11*
D12*
X130285714Y-200158571D02*
X130285714Y-201372857D01*
X130357142Y-201515714D01*
X130428571Y-201587142D01*
X130571428Y-201658571D01*
X130785714Y-201658571D01*
X130928571Y-201587142D01*
X130285714Y-201087142D02*
X130428571Y-201158571D01*
X130714285Y-201158571D01*
X130857142Y-201087142D01*
X130928571Y-201015714D01*
X131000000Y-200872857D01*
X131000000Y-200444285D01*
X130928571Y-200301428D01*
X130857142Y-200230000D01*
X130714285Y-200158571D01*
X130428571Y-200158571D01*
X130285714Y-200230000D01*
X129571428Y-200158571D02*
X129571428Y-201158571D01*
X129571428Y-200301428D02*
X129500000Y-200230000D01*
X129357142Y-200158571D01*
X129142857Y-200158571D01*
X129000000Y-200230000D01*
X128928571Y-200372857D01*
X128928571Y-201158571D01*
X127571428Y-201158571D02*
X127571428Y-199658571D01*
X127571428Y-201087142D02*
X127714285Y-201158571D01*
X128000000Y-201158571D01*
X128142857Y-201087142D01*
X128214285Y-201015714D01*
X128285714Y-200872857D01*
X128285714Y-200444285D01*
X128214285Y-200301428D01*
X128142857Y-200230000D01*
X128000000Y-200158571D01*
X127714285Y-200158571D01*
X127571428Y-200230000D01*
D11*
D12*
X81607142Y-166321428D02*
X81535714Y-166250000D01*
X81392857Y-166178571D01*
X81035714Y-166178571D01*
X80892857Y-166250000D01*
X80821428Y-166321428D01*
X80750000Y-166464285D01*
X80750000Y-166607142D01*
X80821428Y-166821428D01*
X81678571Y-167678571D01*
X80750000Y-167678571D01*
X80250000Y-166178571D02*
X79250000Y-166178571D01*
X79892857Y-167678571D01*
X78821428Y-166178571D02*
X77892857Y-166178571D01*
X78392857Y-166750000D01*
X78178571Y-166750000D01*
X78035714Y-166821428D01*
X77964285Y-166892857D01*
X77892857Y-167035714D01*
X77892857Y-167392857D01*
X77964285Y-167535714D01*
X78035714Y-167607142D01*
X78178571Y-167678571D01*
X78607142Y-167678571D01*
X78750000Y-167607142D01*
X78821428Y-167535714D01*
D11*
D12*
X119500000Y-197408571D02*
X118928571Y-197408571D01*
X119285714Y-198408571D02*
X119285714Y-197122857D01*
X119214285Y-196980000D01*
X119071428Y-196908571D01*
X118928571Y-196908571D01*
X118428571Y-198408571D02*
X118428571Y-197408571D01*
X118428571Y-197694285D02*
X118357142Y-197551428D01*
X118285714Y-197480000D01*
X118142857Y-197408571D01*
X118000000Y-197408571D01*
D11*
D12*
X119464285Y-183337142D02*
X119321428Y-183408571D01*
X119035714Y-183408571D01*
X118892857Y-183337142D01*
X118821428Y-183194285D01*
X118821428Y-183122857D01*
X118892857Y-182980000D01*
X119035714Y-182908571D01*
X119250000Y-182908571D01*
X119392857Y-182837142D01*
X119464285Y-182694285D01*
X119464285Y-182622857D01*
X119392857Y-182480000D01*
X119250000Y-182408571D01*
X119035714Y-182408571D01*
X118892857Y-182480000D01*
X117964285Y-183408571D02*
X118107142Y-183337142D01*
X118178571Y-183194285D01*
X118178571Y-181908571D01*
D11*
D12*
X92321428Y-201158571D02*
X92321428Y-200158571D01*
X92321428Y-200444285D02*
X92250000Y-200301428D01*
X92178571Y-200230000D01*
X92035714Y-200158571D01*
X91892857Y-200158571D01*
X91535714Y-199658571D02*
X90607142Y-199658571D01*
X91107142Y-200230000D01*
X90892857Y-200230000D01*
X90750000Y-200301428D01*
X90678571Y-200372857D01*
X90607142Y-200515714D01*
X90607142Y-200872857D01*
X90678571Y-201015714D01*
X90750000Y-201087142D01*
X90892857Y-201158571D01*
X91321428Y-201158571D01*
X91464285Y-201087142D01*
X91535714Y-201015714D01*
D11*
D12*
X110321428Y-211892857D02*
X110250000Y-211964285D01*
X110178571Y-212107142D01*
X110178571Y-212464285D01*
X110250000Y-212607142D01*
X110321428Y-212678571D01*
X110464285Y-212750000D01*
X110607142Y-212750000D01*
X110821428Y-212678571D01*
X111678571Y-211821428D01*
X111678571Y-212750000D01*
X110321428Y-213321428D02*
X110250000Y-213392857D01*
X110178571Y-213535714D01*
X110178571Y-213892857D01*
X110250000Y-214035714D01*
X110321428Y-214107142D01*
X110464285Y-214178571D01*
X110607142Y-214178571D01*
X110821428Y-214107142D01*
X111678571Y-213250000D01*
X111678571Y-214178571D01*
X110321428Y-214750000D02*
X110250000Y-214821428D01*
X110178571Y-214964285D01*
X110178571Y-215321428D01*
X110250000Y-215464285D01*
X110321428Y-215535714D01*
X110464285Y-215607142D01*
X110607142Y-215607142D01*
X110821428Y-215535714D01*
X111678571Y-214678571D01*
X111678571Y-215607142D01*
D11*
D12*
X120785714Y-187408571D02*
X120785714Y-188622857D01*
X120857142Y-188765714D01*
X120928571Y-188837142D01*
X121071428Y-188908571D01*
X121285714Y-188908571D01*
X121428571Y-188837142D01*
X120785714Y-188337142D02*
X120928571Y-188408571D01*
X121214285Y-188408571D01*
X121357142Y-188337142D01*
X121428571Y-188265714D01*
X121500000Y-188122857D01*
X121500000Y-187694285D01*
X121428571Y-187551428D01*
X121357142Y-187480000D01*
X121214285Y-187408571D01*
X120928571Y-187408571D01*
X120785714Y-187480000D01*
X120071428Y-187408571D02*
X120071428Y-188408571D01*
X120071428Y-187551428D02*
X120000000Y-187480000D01*
X119857142Y-187408571D01*
X119642857Y-187408571D01*
X119500000Y-187480000D01*
X119428571Y-187622857D01*
X119428571Y-188408571D01*
X118071428Y-188408571D02*
X118071428Y-186908571D01*
X118071428Y-188337142D02*
X118214285Y-188408571D01*
X118500000Y-188408571D01*
X118642857Y-188337142D01*
X118714285Y-188265714D01*
X118785714Y-188122857D01*
X118785714Y-187694285D01*
X118714285Y-187551428D01*
X118642857Y-187480000D01*
X118500000Y-187408571D01*
X118214285Y-187408571D01*
X118071428Y-187480000D01*
D11*
D12*
X130785714Y-190837142D02*
X130642857Y-190908571D01*
X130357142Y-190908571D01*
X130214285Y-190837142D01*
X130142857Y-190694285D01*
X130142857Y-190622857D01*
X130214285Y-190480000D01*
X130357142Y-190408571D01*
X130571428Y-190408571D01*
X130714285Y-190337142D01*
X130785714Y-190194285D01*
X130785714Y-190122857D01*
X130714285Y-189980000D01*
X130571428Y-189908571D01*
X130357142Y-189908571D01*
X130214285Y-189980000D01*
X129500000Y-190908571D02*
X129500000Y-189908571D01*
X129500000Y-190194285D02*
X129428571Y-190051428D01*
X129357142Y-189980000D01*
X129214285Y-189908571D01*
X129071428Y-189908571D01*
D11*
D12*
X81000000Y-192408571D02*
X80428571Y-192408571D01*
X80785714Y-193408571D02*
X80785714Y-192122857D01*
X80714285Y-191980000D01*
X80571428Y-191908571D01*
X80428571Y-191908571D01*
X79928571Y-193408571D02*
X79928571Y-192408571D01*
X79928571Y-192694285D02*
X79857142Y-192551428D01*
X79785714Y-192480000D01*
X79642857Y-192408571D01*
X79500000Y-192408571D01*
D11*
D12*
X130928571Y-177408571D02*
X130357142Y-177408571D01*
X130714285Y-178408571D02*
X130714285Y-177122857D01*
X130642857Y-176980000D01*
X130500000Y-176908571D01*
X130357142Y-176908571D01*
X129642857Y-178408571D02*
X129785714Y-178337142D01*
X129857142Y-178194285D01*
X129857142Y-176908571D01*
D11*
D12*
X92321428Y-198658571D02*
X92321428Y-197658571D01*
X92321428Y-197944285D02*
X92250000Y-197801428D01*
X92178571Y-197730000D01*
X92035714Y-197658571D01*
X91892857Y-197658571D01*
X90750000Y-197658571D02*
X90750000Y-198658571D01*
X91107142Y-197087142D02*
X91464285Y-198158571D01*
X90535714Y-198158571D01*
D11*
D12*
X81035714Y-206158571D02*
X81178571Y-206087142D01*
X81250000Y-205944285D01*
X81250000Y-204658571D01*
X79678571Y-206158571D02*
X80535714Y-206158571D01*
X80107142Y-206158571D02*
X80107142Y-204658571D01*
X80250000Y-204872857D01*
X80392857Y-205015714D01*
X80535714Y-205087142D01*
D11*
D12*
X82892857Y-177158571D02*
X82535714Y-178158571D01*
X82178571Y-177158571D01*
X80964285Y-178087142D02*
X81107142Y-178158571D01*
X81392857Y-178158571D01*
X81535714Y-178087142D01*
X81607142Y-178015714D01*
X81678571Y-177872857D01*
X81678571Y-177444285D01*
X81607142Y-177301428D01*
X81535714Y-177230000D01*
X81392857Y-177158571D01*
X81107142Y-177158571D01*
X80964285Y-177230000D01*
X79678571Y-178087142D02*
X79821428Y-178158571D01*
X80107142Y-178158571D01*
X80250000Y-178087142D01*
X80321428Y-178015714D01*
X80392857Y-177872857D01*
X80392857Y-177444285D01*
X80321428Y-177301428D01*
X80250000Y-177230000D01*
X80107142Y-177158571D01*
X79821428Y-177158571D01*
X79678571Y-177230000D01*
D11*
D12*
X136178571Y-164750000D02*
X136178571Y-163892857D01*
X136178571Y-164321428D02*
X134678571Y-164321428D01*
X134892857Y-164178571D01*
X135035714Y-164035714D01*
X135107142Y-163892857D01*
X134678571Y-165678571D02*
X134678571Y-165821428D01*
X134750000Y-165964285D01*
X134821428Y-166035714D01*
X134964285Y-166107142D01*
X135250000Y-166178571D01*
X135607142Y-166178571D01*
X135892857Y-166107142D01*
X136035714Y-166035714D01*
X136107142Y-165964285D01*
X136178571Y-165821428D01*
X136178571Y-165678571D01*
X136107142Y-165535714D01*
X136035714Y-165464285D01*
X135892857Y-165392857D01*
X135607142Y-165321428D01*
X135250000Y-165321428D01*
X134964285Y-165392857D01*
X134821428Y-165464285D01*
X134750000Y-165535714D01*
X134678571Y-165678571D01*
X135178571Y-167464285D02*
X136178571Y-167464285D01*
X134607142Y-167107142D02*
X135678571Y-166750000D01*
X135678571Y-167678571D01*
D11*
D12*
X92178571Y-189908571D02*
X91607142Y-189908571D01*
X91964285Y-190908571D02*
X91964285Y-189622857D01*
X91892857Y-189480000D01*
X91750000Y-189408571D01*
X91607142Y-189408571D01*
X90892857Y-190908571D02*
X91035714Y-190837142D01*
X91107142Y-190694285D01*
X91107142Y-189408571D01*
D11*
D12*
X122357142Y-160071428D02*
X122285714Y-160000000D01*
X122142857Y-159928571D01*
X121785714Y-159928571D01*
X121642857Y-160000000D01*
X121571428Y-160071428D01*
X121500000Y-160214285D01*
X121500000Y-160357142D01*
X121571428Y-160571428D01*
X122428571Y-161428571D01*
X121500000Y-161428571D01*
X120928571Y-160071428D02*
X120857142Y-160000000D01*
X120714285Y-159928571D01*
X120357142Y-159928571D01*
X120214285Y-160000000D01*
X120142857Y-160071428D01*
X120071428Y-160214285D01*
X120071428Y-160357142D01*
X120142857Y-160571428D01*
X121000000Y-161428571D01*
X120071428Y-161428571D01*
X119500000Y-160071428D02*
X119428571Y-160000000D01*
X119285714Y-159928571D01*
X118928571Y-159928571D01*
X118785714Y-160000000D01*
X118714285Y-160071428D01*
X118642857Y-160214285D01*
X118642857Y-160357142D01*
X118714285Y-160571428D01*
X119571428Y-161428571D01*
X118642857Y-161428571D01*
D11*
D12*
X81035714Y-198658571D02*
X81178571Y-198587142D01*
X81250000Y-198444285D01*
X81250000Y-197158571D01*
X79821428Y-197658571D02*
X79821428Y-198658571D01*
X80178571Y-197087142D02*
X80535714Y-198158571D01*
X79607142Y-198158571D01*
D11*
D12*
X92285714Y-178337142D02*
X92142857Y-178408571D01*
X91857142Y-178408571D01*
X91714285Y-178337142D01*
X91642857Y-178194285D01*
X91642857Y-178122857D01*
X91714285Y-177980000D01*
X91857142Y-177908571D01*
X92071428Y-177908571D01*
X92214285Y-177837142D01*
X92285714Y-177694285D01*
X92285714Y-177622857D01*
X92214285Y-177480000D01*
X92071428Y-177408571D01*
X91857142Y-177408571D01*
X91714285Y-177480000D01*
X91000000Y-178408571D02*
X91000000Y-177408571D01*
X91000000Y-177694285D02*
X90928571Y-177551428D01*
X90857142Y-177480000D01*
X90714285Y-177408571D01*
X90571428Y-177408571D01*
D11*
D12*
X80964285Y-185587142D02*
X80821428Y-185658571D01*
X80535714Y-185658571D01*
X80392857Y-185587142D01*
X80321428Y-185444285D01*
X80321428Y-185372857D01*
X80392857Y-185230000D01*
X80535714Y-185158571D01*
X80750000Y-185158571D01*
X80892857Y-185087142D01*
X80964285Y-184944285D01*
X80964285Y-184872857D01*
X80892857Y-184730000D01*
X80750000Y-184658571D01*
X80535714Y-184658571D01*
X80392857Y-184730000D01*
X79464285Y-185658571D02*
X79607142Y-185587142D01*
X79678571Y-185444285D01*
X79678571Y-184158571D01*
D11*
D12*
X91321428Y-185837142D02*
X91464285Y-185908571D01*
X91750000Y-185908571D01*
X91892857Y-185837142D01*
X91964285Y-185765714D01*
X92035714Y-185622857D01*
X92035714Y-185194285D01*
X91964285Y-185051428D01*
X91892857Y-184980000D01*
X91750000Y-184908571D01*
X91464285Y-184908571D01*
X91321428Y-184980000D01*
X90892857Y-184908571D02*
X90321428Y-184908571D01*
X90678571Y-184408571D02*
X90678571Y-185694285D01*
X90607142Y-185837142D01*
X90464285Y-185908571D01*
X90321428Y-185908571D01*
D11*
D12*
X81035714Y-201158571D02*
X81178571Y-201087142D01*
X81250000Y-200944285D01*
X81250000Y-199658571D01*
X80607142Y-199658571D02*
X79678571Y-199658571D01*
X80178571Y-200230000D01*
X79964285Y-200230000D01*
X79821428Y-200301428D01*
X79750000Y-200372857D01*
X79678571Y-200515714D01*
X79678571Y-200872857D01*
X79750000Y-201015714D01*
X79821428Y-201087142D01*
X79964285Y-201158571D01*
X80392857Y-201158571D01*
X80535714Y-201087142D01*
X80607142Y-201015714D01*
D11*
D12*
X121500000Y-164928571D02*
X122357142Y-164928571D01*
X121928571Y-164928571D02*
X121928571Y-163428571D01*
X122071428Y-163642857D01*
X122214285Y-163785714D01*
X122357142Y-163857142D01*
X120571428Y-163428571D02*
X120428571Y-163428571D01*
X120285714Y-163500000D01*
X120214285Y-163571428D01*
X120142857Y-163714285D01*
X120071428Y-164000000D01*
X120071428Y-164357142D01*
X120142857Y-164642857D01*
X120214285Y-164785714D01*
X120285714Y-164857142D01*
X120428571Y-164928571D01*
X120571428Y-164928571D01*
X120714285Y-164857142D01*
X120785714Y-164785714D01*
X120857142Y-164642857D01*
X120928571Y-164357142D01*
X120928571Y-164000000D01*
X120857142Y-163714285D01*
X120785714Y-163571428D01*
X120714285Y-163500000D01*
X120571428Y-163428571D01*
X119571428Y-163428571D02*
X118642857Y-163428571D01*
X119142857Y-164000000D01*
X118928571Y-164000000D01*
X118785714Y-164071428D01*
X118714285Y-164142857D01*
X118642857Y-164285714D01*
X118642857Y-164642857D01*
X118714285Y-164785714D01*
X118785714Y-164857142D01*
X118928571Y-164928571D01*
X119357142Y-164928571D01*
X119500000Y-164857142D01*
X119571428Y-164785714D01*
D11*
D12*
X118678571Y-212500000D02*
X118678571Y-211642857D01*
X118678571Y-212071428D02*
X117178571Y-212071428D01*
X117392857Y-211928571D01*
X117535714Y-211785714D01*
X117607142Y-211642857D01*
X117178571Y-213428571D02*
X117178571Y-213571428D01*
X117250000Y-213714285D01*
X117321428Y-213785714D01*
X117464285Y-213857142D01*
X117750000Y-213928571D01*
X118107142Y-213928571D01*
X118392857Y-213857142D01*
X118535714Y-213785714D01*
X118607142Y-213714285D01*
X118678571Y-213571428D01*
X118678571Y-213428571D01*
X118607142Y-213285714D01*
X118535714Y-213214285D01*
X118392857Y-213142857D01*
X118107142Y-213071428D01*
X117750000Y-213071428D01*
X117464285Y-213142857D01*
X117321428Y-213214285D01*
X117250000Y-213285714D01*
X117178571Y-213428571D01*
X117178571Y-214428571D02*
X117178571Y-215357142D01*
X117750000Y-214857142D01*
X117750000Y-215071428D01*
X117821428Y-215214285D01*
X117892857Y-215285714D01*
X118035714Y-215357142D01*
X118392857Y-215357142D01*
X118535714Y-215285714D01*
X118607142Y-215214285D01*
X118678571Y-215071428D01*
X118678571Y-214642857D01*
X118607142Y-214500000D01*
X118535714Y-214428571D01*
D11*
D12*
X80928571Y-194908571D02*
X80357142Y-194908571D01*
X80714285Y-195908571D02*
X80714285Y-194622857D01*
X80642857Y-194480000D01*
X80500000Y-194408571D01*
X80357142Y-194408571D01*
X79642857Y-195908571D02*
X79785714Y-195837142D01*
X79857142Y-195694285D01*
X79857142Y-194408571D01*
D11*
D12*
X92428571Y-183337142D02*
X92285714Y-183408571D01*
X92000000Y-183408571D01*
X91857142Y-183337142D01*
X91785714Y-183194285D01*
X91785714Y-183122857D01*
X91857142Y-182980000D01*
X92000000Y-182908571D01*
X92214285Y-182908571D01*
X92357142Y-182837142D01*
X92428571Y-182694285D01*
X92428571Y-182622857D01*
X92357142Y-182480000D01*
X92214285Y-182408571D01*
X92000000Y-182408571D01*
X91857142Y-182480000D01*
X90500000Y-182408571D02*
X90500000Y-183408571D01*
X91142857Y-182408571D02*
X91142857Y-183194285D01*
X91071428Y-183337142D01*
X90928571Y-183408571D01*
X90714285Y-183408571D01*
X90571428Y-183337142D01*
X90500000Y-183265714D01*
X89785714Y-183408571D02*
X89785714Y-181908571D01*
X89785714Y-182480000D02*
X89642857Y-182408571D01*
X89357142Y-182408571D01*
X89214285Y-182480000D01*
X89142857Y-182551428D01*
X89071428Y-182694285D01*
X89071428Y-183122857D01*
X89142857Y-183265714D01*
X89214285Y-183337142D01*
X89357142Y-183408571D01*
X89642857Y-183408571D01*
X89785714Y-183337142D01*
D11*
D12*
X82285714Y-172158571D02*
X82285714Y-173372857D01*
X82357142Y-173515714D01*
X82428571Y-173587142D01*
X82571428Y-173658571D01*
X82785714Y-173658571D01*
X82928571Y-173587142D01*
X82285714Y-173087142D02*
X82428571Y-173158571D01*
X82714285Y-173158571D01*
X82857142Y-173087142D01*
X82928571Y-173015714D01*
X83000000Y-172872857D01*
X83000000Y-172444285D01*
X82928571Y-172301428D01*
X82857142Y-172230000D01*
X82714285Y-172158571D01*
X82428571Y-172158571D01*
X82285714Y-172230000D01*
X81571428Y-172158571D02*
X81571428Y-173158571D01*
X81571428Y-172301428D02*
X81500000Y-172230000D01*
X81357142Y-172158571D01*
X81142857Y-172158571D01*
X81000000Y-172230000D01*
X80928571Y-172372857D01*
X80928571Y-173158571D01*
X79571428Y-173158571D02*
X79571428Y-171658571D01*
X79571428Y-173087142D02*
X79714285Y-173158571D01*
X80000000Y-173158571D01*
X80142857Y-173087142D01*
X80214285Y-173015714D01*
X80285714Y-172872857D01*
X80285714Y-172444285D01*
X80214285Y-172301428D01*
X80142857Y-172230000D01*
X80000000Y-172158571D01*
X79714285Y-172158571D01*
X79571428Y-172230000D01*
D11*
D12*
X92428571Y-173087142D02*
X92285714Y-173158571D01*
X92000000Y-173158571D01*
X91857142Y-173087142D01*
X91785714Y-172944285D01*
X91785714Y-172872857D01*
X91857142Y-172730000D01*
X92000000Y-172658571D01*
X92214285Y-172658571D01*
X92357142Y-172587142D01*
X92428571Y-172444285D01*
X92428571Y-172372857D01*
X92357142Y-172230000D01*
X92214285Y-172158571D01*
X92000000Y-172158571D01*
X91857142Y-172230000D01*
X90500000Y-173158571D02*
X90500000Y-171658571D01*
X90500000Y-173087142D02*
X90642857Y-173158571D01*
X90928571Y-173158571D01*
X91071428Y-173087142D01*
X91142857Y-173015714D01*
X91214285Y-172872857D01*
X91214285Y-172444285D01*
X91142857Y-172301428D01*
X91071428Y-172230000D01*
X90928571Y-172158571D01*
X90642857Y-172158571D01*
X90500000Y-172230000D01*
X89142857Y-173158571D02*
X89142857Y-172372857D01*
X89214285Y-172230000D01*
X89357142Y-172158571D01*
X89642857Y-172158571D01*
X89785714Y-172230000D01*
X89142857Y-173087142D02*
X89285714Y-173158571D01*
X89642857Y-173158571D01*
X89785714Y-173087142D01*
X89857142Y-172944285D01*
X89857142Y-172801428D01*
X89785714Y-172658571D01*
X89642857Y-172587142D01*
X89285714Y-172587142D01*
X89142857Y-172515714D01*
D11*
D12*
X121428571Y-193337142D02*
X121285714Y-193408571D01*
X121000000Y-193408571D01*
X120857142Y-193337142D01*
X120785714Y-193194285D01*
X120785714Y-193122857D01*
X120857142Y-192980000D01*
X121000000Y-192908571D01*
X121214285Y-192908571D01*
X121357142Y-192837142D01*
X121428571Y-192694285D01*
X121428571Y-192622857D01*
X121357142Y-192480000D01*
X121214285Y-192408571D01*
X121000000Y-192408571D01*
X120857142Y-192480000D01*
X119500000Y-192408571D02*
X119500000Y-193408571D01*
X120142857Y-192408571D02*
X120142857Y-193194285D01*
X120071428Y-193337142D01*
X119928571Y-193408571D01*
X119714285Y-193408571D01*
X119571428Y-193337142D01*
X119500000Y-193265714D01*
X118785714Y-193408571D02*
X118785714Y-191908571D01*
X118785714Y-192480000D02*
X118642857Y-192408571D01*
X118357142Y-192408571D01*
X118214285Y-192480000D01*
X118142857Y-192551428D01*
X118071428Y-192694285D01*
X118071428Y-193122857D01*
X118142857Y-193265714D01*
X118214285Y-193337142D01*
X118357142Y-193408571D01*
X118642857Y-193408571D01*
X118785714Y-193337142D01*
D11*
D12*
X134428571Y-214250000D02*
X134428571Y-213392857D01*
X134428571Y-213821428D02*
X132928571Y-213821428D01*
X133142857Y-213678571D01*
X133285714Y-213535714D01*
X133357142Y-213392857D01*
X132928571Y-215178571D02*
X132928571Y-215321428D01*
X133000000Y-215464285D01*
X133071428Y-215535714D01*
X133214285Y-215607142D01*
X133500000Y-215678571D01*
X133857142Y-215678571D01*
X134142857Y-215607142D01*
X134285714Y-215535714D01*
X134357142Y-215464285D01*
X134428571Y-215321428D01*
X134428571Y-215178571D01*
X134357142Y-215035714D01*
X134285714Y-214964285D01*
X134142857Y-214892857D01*
X133857142Y-214821428D01*
X133500000Y-214821428D01*
X133214285Y-214892857D01*
X133071428Y-214964285D01*
X133000000Y-215035714D01*
X132928571Y-215178571D01*
X133428571Y-216964285D02*
X134428571Y-216964285D01*
X132857142Y-216607142D02*
X133928571Y-216250000D01*
X133928571Y-217178571D01*
D11*
D12*
X119428571Y-179908571D02*
X118857142Y-179908571D01*
X119214285Y-180908571D02*
X119214285Y-179622857D01*
X119142857Y-179480000D01*
X119000000Y-179408571D01*
X118857142Y-179408571D01*
X118142857Y-180908571D02*
X118285714Y-180837142D01*
X118357142Y-180694285D01*
X118357142Y-179408571D01*
D11*
D12*
X92250000Y-187408571D02*
X91678571Y-187408571D01*
X92035714Y-188408571D02*
X92035714Y-187122857D01*
X91964285Y-186980000D01*
X91821428Y-186908571D01*
X91678571Y-186908571D01*
X91178571Y-188408571D02*
X91178571Y-187408571D01*
X91178571Y-187694285D02*
X91107142Y-187551428D01*
X91035714Y-187480000D01*
X90892857Y-187408571D01*
X90750000Y-187408571D01*
D11*
D12*
X130857142Y-196087142D02*
X130714285Y-196158571D01*
X130428571Y-196158571D01*
X130285714Y-196087142D01*
X130214285Y-195944285D01*
X130214285Y-195872857D01*
X130285714Y-195730000D01*
X130428571Y-195658571D01*
X130642857Y-195658571D01*
X130785714Y-195587142D01*
X130857142Y-195444285D01*
X130857142Y-195372857D01*
X130785714Y-195230000D01*
X130642857Y-195158571D01*
X130428571Y-195158571D01*
X130285714Y-195230000D01*
X128928571Y-196087142D02*
X129071428Y-196158571D01*
X129357142Y-196158571D01*
X129500000Y-196087142D01*
X129571428Y-196015714D01*
X129642857Y-195872857D01*
X129642857Y-195444285D01*
X129571428Y-195301428D01*
X129500000Y-195230000D01*
X129357142Y-195158571D01*
X129071428Y-195158571D01*
X128928571Y-195230000D01*
X128071428Y-196158571D02*
X128214285Y-196087142D01*
X128285714Y-195944285D01*
X128285714Y-194658571D01*
D11*
D12*
X130928571Y-188337142D02*
X130785714Y-188408571D01*
X130500000Y-188408571D01*
X130357142Y-188337142D01*
X130285714Y-188194285D01*
X130285714Y-188122857D01*
X130357142Y-187980000D01*
X130500000Y-187908571D01*
X130714285Y-187908571D01*
X130857142Y-187837142D01*
X130928571Y-187694285D01*
X130928571Y-187622857D01*
X130857142Y-187480000D01*
X130714285Y-187408571D01*
X130500000Y-187408571D01*
X130357142Y-187480000D01*
X129000000Y-187408571D02*
X129000000Y-188408571D01*
X129642857Y-187408571D02*
X129642857Y-188194285D01*
X129571428Y-188337142D01*
X129428571Y-188408571D01*
X129214285Y-188408571D01*
X129071428Y-188337142D01*
X129000000Y-188265714D01*
X128285714Y-188408571D02*
X128285714Y-186908571D01*
X128285714Y-187480000D02*
X128142857Y-187408571D01*
X127857142Y-187408571D01*
X127714285Y-187480000D01*
X127642857Y-187551428D01*
X127571428Y-187694285D01*
X127571428Y-188122857D01*
X127642857Y-188265714D01*
X127714285Y-188337142D01*
X127857142Y-188408571D01*
X128142857Y-188408571D01*
X128285714Y-188337142D01*
D11*
D12*
X120428571Y-191158571D02*
X120428571Y-190158571D01*
X120428571Y-190444285D02*
X120357142Y-190301428D01*
X120285714Y-190230000D01*
X120142857Y-190158571D01*
X120000000Y-190158571D01*
X118928571Y-191087142D02*
X119071428Y-191158571D01*
X119357142Y-191158571D01*
X119500000Y-191087142D01*
X119571428Y-190944285D01*
X119571428Y-190372857D01*
X119500000Y-190230000D01*
X119357142Y-190158571D01*
X119071428Y-190158571D01*
X118928571Y-190230000D01*
X118857142Y-190372857D01*
X118857142Y-190515714D01*
X119571428Y-190658571D01*
X118428571Y-190158571D02*
X117857142Y-190158571D01*
X118214285Y-191158571D02*
X118214285Y-189872857D01*
X118142857Y-189730000D01*
X118000000Y-189658571D01*
X117857142Y-189658571D01*
D11*
D12*
X130928571Y-198587142D02*
X130785714Y-198658571D01*
X130500000Y-198658571D01*
X130357142Y-198587142D01*
X130285714Y-198444285D01*
X130285714Y-198372857D01*
X130357142Y-198230000D01*
X130500000Y-198158571D01*
X130714285Y-198158571D01*
X130857142Y-198087142D01*
X130928571Y-197944285D01*
X130928571Y-197872857D01*
X130857142Y-197730000D01*
X130714285Y-197658571D01*
X130500000Y-197658571D01*
X130357142Y-197730000D01*
X129000000Y-198658571D02*
X129000000Y-197158571D01*
X129000000Y-198587142D02*
X129142857Y-198658571D01*
X129428571Y-198658571D01*
X129571428Y-198587142D01*
X129642857Y-198515714D01*
X129714285Y-198372857D01*
X129714285Y-197944285D01*
X129642857Y-197801428D01*
X129571428Y-197730000D01*
X129428571Y-197658571D01*
X129142857Y-197658571D01*
X129000000Y-197730000D01*
X127642857Y-198658571D02*
X127642857Y-197872857D01*
X127714285Y-197730000D01*
X127857142Y-197658571D01*
X128142857Y-197658571D01*
X128285714Y-197730000D01*
X127642857Y-198587142D02*
X127785714Y-198658571D01*
X128142857Y-198658571D01*
X128285714Y-198587142D01*
X128357142Y-198444285D01*
X128357142Y-198301428D01*
X128285714Y-198158571D01*
X128142857Y-198087142D01*
X127785714Y-198087142D01*
X127642857Y-198015714D01*
D11*
D12*
X92357142Y-175587142D02*
X92214285Y-175658571D01*
X91928571Y-175658571D01*
X91785714Y-175587142D01*
X91714285Y-175444285D01*
X91714285Y-175372857D01*
X91785714Y-175230000D01*
X91928571Y-175158571D01*
X92142857Y-175158571D01*
X92285714Y-175087142D01*
X92357142Y-174944285D01*
X92357142Y-174872857D01*
X92285714Y-174730000D01*
X92142857Y-174658571D01*
X91928571Y-174658571D01*
X91785714Y-174730000D01*
X90428571Y-175587142D02*
X90571428Y-175658571D01*
X90857142Y-175658571D01*
X91000000Y-175587142D01*
X91071428Y-175515714D01*
X91142857Y-175372857D01*
X91142857Y-174944285D01*
X91071428Y-174801428D01*
X91000000Y-174730000D01*
X90857142Y-174658571D01*
X90571428Y-174658571D01*
X90428571Y-174730000D01*
X89571428Y-175658571D02*
X89714285Y-175587142D01*
X89785714Y-175444285D01*
X89785714Y-174158571D01*
D11*
D12*
X121500000Y-168428571D02*
X122357142Y-168428571D01*
X121928571Y-168428571D02*
X121928571Y-166928571D01*
X122071428Y-167142857D01*
X122214285Y-167285714D01*
X122357142Y-167357142D01*
X120571428Y-166928571D02*
X120428571Y-166928571D01*
X120285714Y-167000000D01*
X120214285Y-167071428D01*
X120142857Y-167214285D01*
X120071428Y-167500000D01*
X120071428Y-167857142D01*
X120142857Y-168142857D01*
X120214285Y-168285714D01*
X120285714Y-168357142D01*
X120428571Y-168428571D01*
X120571428Y-168428571D01*
X120714285Y-168357142D01*
X120785714Y-168285714D01*
X120857142Y-168142857D01*
X120928571Y-167857142D01*
X120928571Y-167500000D01*
X120857142Y-167214285D01*
X120785714Y-167071428D01*
X120714285Y-167000000D01*
X120571428Y-166928571D01*
X119571428Y-166928571D02*
X118642857Y-166928571D01*
X119142857Y-167500000D01*
X118928571Y-167500000D01*
X118785714Y-167571428D01*
X118714285Y-167642857D01*
X118642857Y-167785714D01*
X118642857Y-168142857D01*
X118714285Y-168285714D01*
X118785714Y-168357142D01*
X118928571Y-168428571D01*
X119357142Y-168428571D01*
X119500000Y-168357142D01*
X119571428Y-168285714D01*
D13*
%TO.P,REF\u002A\u002A,1*%
%TO.N,N/C*%
X120750000Y-189750000D03*
D14*
%TO.P,REF\u002A\u002A,2*%
X120750000Y-187750000D03*
%TD*%
D15*
%TO.P,REF\u002A\u002A,1*%
%TO.N,N/C*%
X136250000Y-112347349D03*
D16*
%TO.P,REF\u002A\u002A,2*%
X136250000Y-117347349D03*
%TD*%
D17*
%TO.P,REF\u002A\u002A,1*%
%TO.N,N/C*%
X146750000Y-121235000D03*
D18*
%TO.P,REF\u002A\u002A,2*%
X146750000Y-126235000D03*
%TD*%
D16*
%TO.P,REF\u002A\u002A,1*%
%TO.N,N/C*%
X98080000Y-214750000D03*
D19*
%TO.P,REF\u002A\u002A,2*%
X87920000Y-214750000D03*
%TD*%
D17*
%TO.P,REF\u002A\u002A,1*%
%TO.N,N/C*%
X63740000Y-117545000D03*
D18*
%TO.P,REF\u002A\u002A,2*%
X63740000Y-112545000D03*
%TO.P,REF\u002A\u002A,3*%
X63740000Y-107545000D03*
%TD*%
D16*
%TO.P,REF\u002A\u002A,1*%
%TO.N,N/C*%
X148750000Y-63620000D03*
D19*
%TO.P,REF\u002A\u002A,2*%
X148750000Y-48380000D03*
%TD*%
D20*
%TO.P,REF\u002A\u002A,1*%
%TO.N,N/C*%
X105012755Y-122125000D03*
D21*
%TO.P,REF\u002A\u002A,2*%
X105012755Y-114505000D03*
%TD*%
D13*
%TO.P,REF\u002A\u002A,1*%
%TO.N,N/C*%
X101750000Y-223250000D03*
D14*
%TO.P,REF\u002A\u002A,2*%
X101750000Y-221250000D03*
%TD*%
D16*
%TO.P,REF\u002A\u002A,1*%
%TO.N,N/C*%
X121250000Y-63620000D03*
D19*
%TO.P,REF\u002A\u002A,2*%
X121250000Y-48380000D03*
%TD*%
D22*
%TO.P,REF\u002A\u002A,1*%
%TO.N,N/C*%
X129985000Y-40250000D03*
D23*
%TO.P,REF\u002A\u002A,2*%
X134985000Y-40250000D03*
%TD*%
D22*
%TO.P,REF\u002A\u002A,1*%
%TO.N,N/C*%
X88735000Y-40250000D03*
D23*
%TO.P,REF\u002A\u002A,2*%
X93735000Y-40250000D03*
%TD*%
D16*
%TO.P,REF\u002A\u002A,1*%
%TO.N,N/C*%
X100170000Y-190980000D03*
D19*
%TO.P,REF\u002A\u002A,2*%
X110330000Y-190980000D03*
%TD*%
D16*
%TO.P,REF\u002A\u002A,1*%
%TO.N,N/C*%
X65920000Y-144000000D03*
D19*
%TO.P,REF\u002A\u002A,2*%
X76080000Y-144000000D03*
%TD*%
D24*
%TO.P,REF\u002A\u002A,1*%
%TO.N,N/C*%
X79475000Y-227750000D03*
D25*
%TO.P,REF\u002A\u002A,2*%
X82015000Y-227750000D03*
%TO.P,REF\u002A\u002A,3*%
X84555000Y-227750000D03*
%TD*%
D16*
%TO.P,REF\u002A\u002A,1*%
%TO.N,N/C*%
X98080000Y-137500000D03*
D19*
%TO.P,REF\u002A\u002A,2*%
X87920000Y-137500000D03*
%TD*%
D22*
%TO.P,REF\u002A\u002A,1*%
%TO.N,N/C*%
X148750000Y-82750000D03*
D23*
%TO.P,REF\u002A\u002A,2*%
X143750000Y-82750000D03*
%TD*%
D16*
%TO.P,REF\u002A\u002A,1*%
%TO.N,N/C*%
X98080000Y-144000000D03*
D19*
%TO.P,REF\u002A\u002A,2*%
X87920000Y-144000000D03*
%TD*%
D16*
%TO.P,REF\u002A\u002A,1*%
%TO.N,N/C*%
X98080000Y-231000000D03*
D19*
%TO.P,REF\u002A\u002A,2*%
X87920000Y-231000000D03*
%TD*%
D16*
%TO.P,REF\u002A\u002A,1*%
%TO.N,N/C*%
X100170000Y-174980000D03*
D19*
%TO.P,REF\u002A\u002A,2*%
X110330000Y-174980000D03*
%TD*%
D24*
%TO.P,REF\u002A\u002A,1*%
%TO.N,N/C*%
X140000000Y-175030000D03*
D25*
%TO.P,REF\u002A\u002A,2*%
X140000000Y-177570000D03*
%TO.P,REF\u002A\u002A,3*%
X140000000Y-180110000D03*
%TO.P,REF\u002A\u002A,4*%
X140000000Y-182650000D03*
%TO.P,REF\u002A\u002A,5*%
X140000000Y-185190000D03*
%TO.P,REF\u002A\u002A,6*%
X140000000Y-187730000D03*
%TO.P,REF\u002A\u002A,7*%
X140000000Y-190270000D03*
%TD*%
D16*
%TO.P,REF\u002A\u002A,1*%
%TO.N,N/C*%
X65920000Y-150500000D03*
D19*
%TO.P,REF\u002A\u002A,2*%
X76080000Y-150500000D03*
%TD*%
D16*
%TO.P,REF\u002A\u002A,1*%
%TO.N,N/C*%
X81000000Y-180230000D03*
D19*
%TO.P,REF\u002A\u002A,2*%
X81000000Y-190390000D03*
%TD*%
D22*
%TO.P,REF\u002A\u002A,1*%
%TO.N,N/C*%
X116235000Y-40250000D03*
D23*
%TO.P,REF\u002A\u002A,2*%
X121235000Y-40250000D03*
%TD*%
D22*
%TO.P,REF\u002A\u002A,1*%
%TO.N,N/C*%
X102485000Y-40250000D03*
D23*
%TO.P,REF\u002A\u002A,2*%
X107485000Y-40250000D03*
%TD*%
D26*
%TO.P,REF\u002A\u002A,1*%
%TO.N,N/C*%
X121250000Y-73000000D03*
%TO.P,REF\u002A\u002A,2*%
X121250000Y-68000000D03*
%TD*%
D13*
%TO.P,REF\u002A\u002A,1*%
%TO.N,N/C*%
X62250000Y-229000000D03*
D14*
%TO.P,REF\u002A\u002A,2*%
X62250000Y-231000000D03*
%TD*%
D16*
%TO.P,REF\u002A\u002A,1*%
%TO.N,N/C*%
X100170000Y-178980000D03*
D19*
%TO.P,REF\u002A\u002A,2*%
X110330000Y-178980000D03*
%TD*%
D16*
%TO.P,REF\u002A\u002A,1*%
%TO.N,N/C*%
X100170000Y-194230000D03*
D19*
%TO.P,REF\u002A\u002A,2*%
X110330000Y-194230000D03*
%TD*%
D13*
%TO.P,REF\u002A\u002A,1*%
%TO.N,N/C*%
X101750000Y-146000000D03*
D14*
%TO.P,REF\u002A\u002A,2*%
X101750000Y-144000000D03*
%TD*%
D26*
%TO.P,REF\u002A\u002A,1*%
%TO.N,N/C*%
X148750000Y-73000000D03*
%TO.P,REF\u002A\u002A,2*%
X148750000Y-68000000D03*
%TD*%
D22*
%TO.P,REF\u002A\u002A,1*%
%TO.N,N/C*%
X61235000Y-40250000D03*
D23*
%TO.P,REF\u002A\u002A,2*%
X66235000Y-40250000D03*
%TD*%
D22*
%TO.P,REF\u002A\u002A,1*%
%TO.N,N/C*%
X121250000Y-82750000D03*
D23*
%TO.P,REF\u002A\u002A,2*%
X116250000Y-82750000D03*
%TD*%
D22*
%TO.P,REF\u002A\u002A,1*%
%TO.N,N/C*%
X107500000Y-82750000D03*
D23*
%TO.P,REF\u002A\u002A,2*%
X102500000Y-82750000D03*
%TD*%
D13*
%TO.P,REF\u002A\u002A,1*%
%TO.N,N/C*%
X62250000Y-145250000D03*
D14*
%TO.P,REF\u002A\u002A,2*%
X62250000Y-147250000D03*
%TD*%
D16*
%TO.P,REF\u002A\u002A,1*%
%TO.N,N/C*%
X135000000Y-63620000D03*
D19*
%TO.P,REF\u002A\u002A,2*%
X135000000Y-48380000D03*
%TD*%
D20*
%TO.P,REF\u002A\u002A,1*%
%TO.N,N/C*%
X94512755Y-102870000D03*
D21*
%TO.P,REF\u002A\u002A,2*%
X94512755Y-110490000D03*
%TD*%
D16*
%TO.P,REF\u002A\u002A,1*%
%TO.N,N/C*%
X98080000Y-153750000D03*
D19*
%TO.P,REF\u002A\u002A,2*%
X87920000Y-153750000D03*
%TD*%
D13*
%TO.P,REF\u002A\u002A,1*%
%TO.N,N/C*%
X101750000Y-152500000D03*
D14*
%TO.P,REF\u002A\u002A,2*%
X101750000Y-150500000D03*
%TD*%
D22*
%TO.P,REF\u002A\u002A,1*%
%TO.N,N/C*%
X93750000Y-82750000D03*
D23*
%TO.P,REF\u002A\u002A,2*%
X88750000Y-82750000D03*
%TD*%
D26*
%TO.P,REF\u002A\u002A,1*%
%TO.N,N/C*%
X69000000Y-73000000D03*
%TO.P,REF\u002A\u002A,2*%
X69000000Y-68000000D03*
%TD*%
%TO.P,REF\u002A\u002A,1*%
%TO.N,N/C*%
X93750000Y-73000000D03*
%TO.P,REF\u002A\u002A,2*%
X93750000Y-68000000D03*
%TD*%
D16*
%TO.P,REF\u002A\u002A,1*%
%TO.N,N/C*%
X107500000Y-63620000D03*
D19*
%TO.P,REF\u002A\u002A,2*%
X107500000Y-48380000D03*
%TD*%
D16*
%TO.P,REF\u002A\u002A,1*%
%TO.N,N/C*%
X58500000Y-63620000D03*
D19*
%TO.P,REF\u002A\u002A,2*%
X58500000Y-48380000D03*
%TD*%
D22*
%TO.P,REF\u002A\u002A,1*%
%TO.N,N/C*%
X135000000Y-82750000D03*
D23*
%TO.P,REF\u002A\u002A,2*%
X130000000Y-82750000D03*
%TD*%
D16*
%TO.P,REF\u002A\u002A,1*%
%TO.N,N/C*%
X65920000Y-227750000D03*
D19*
%TO.P,REF\u002A\u002A,2*%
X76080000Y-227750000D03*
%TD*%
D16*
%TO.P,REF\u002A\u002A,1*%
%TO.N,N/C*%
X80000000Y-63620000D03*
D19*
%TO.P,REF\u002A\u002A,2*%
X80000000Y-48380000D03*
%TD*%
D13*
%TO.P,REF\u002A\u002A,1*%
%TO.N,N/C*%
X62250000Y-151750000D03*
D14*
%TO.P,REF\u002A\u002A,2*%
X62250000Y-153750000D03*
%TD*%
D13*
%TO.P,REF\u002A\u002A,1*%
%TO.N,N/C*%
X62250000Y-138750000D03*
D14*
%TO.P,REF\u002A\u002A,2*%
X62250000Y-140750000D03*
%TD*%
D16*
%TO.P,REF\u002A\u002A,1*%
%TO.N,N/C*%
X98080000Y-150500000D03*
D19*
%TO.P,REF\u002A\u002A,2*%
X87920000Y-150500000D03*
%TD*%
D22*
%TO.P,REF\u002A\u002A,1*%
%TO.N,N/C*%
X74985000Y-40250000D03*
D23*
%TO.P,REF\u002A\u002A,2*%
X79985000Y-40250000D03*
%TD*%
D24*
%TO.P,REF\u002A\u002A,1*%
%TO.N,N/C*%
X79475000Y-144000000D03*
D25*
%TO.P,REF\u002A\u002A,2*%
X82015000Y-144000000D03*
%TO.P,REF\u002A\u002A,3*%
X84555000Y-144000000D03*
%TD*%
D24*
%TO.P,REF\u002A\u002A,1*%
%TO.N,N/C*%
X79475000Y-221250000D03*
D25*
%TO.P,REF\u002A\u002A,2*%
X82015000Y-221250000D03*
%TO.P,REF\u002A\u002A,3*%
X84555000Y-221250000D03*
%TD*%
D26*
%TO.P,REF\u002A\u002A,1*%
%TO.N,N/C*%
X136250000Y-141250000D03*
%TO.P,REF\u002A\u002A,2*%
X136250000Y-146250000D03*
%TD*%
D16*
%TO.P,REF\u002A\u002A,1*%
%TO.N,N/C*%
X98080000Y-227750000D03*
D19*
%TO.P,REF\u002A\u002A,2*%
X87920000Y-227750000D03*
%TD*%
D16*
%TO.P,REF\u002A\u002A,1*%
%TO.N,N/C*%
X65920000Y-224500000D03*
D19*
%TO.P,REF\u002A\u002A,2*%
X76080000Y-224500000D03*
%TD*%
D26*
%TO.P,REF\u002A\u002A,1*%
%TO.N,N/C*%
X135000000Y-73000000D03*
%TO.P,REF\u002A\u002A,2*%
X135000000Y-68000000D03*
%TD*%
D24*
%TO.P,REF\u002A\u002A,1*%
%TO.N,N/C*%
X79500000Y-214750000D03*
D25*
%TO.P,REF\u002A\u002A,2*%
X82040000Y-214750000D03*
%TO.P,REF\u002A\u002A,3*%
X84580000Y-214750000D03*
%TD*%
D13*
%TO.P,REF\u002A\u002A,1*%
%TO.N,N/C*%
X101750000Y-216750000D03*
D14*
%TO.P,REF\u002A\u002A,2*%
X101750000Y-214750000D03*
%TD*%
D22*
%TO.P,REF\u002A\u002A,1*%
%TO.N,N/C*%
X66250000Y-82750000D03*
D23*
%TO.P,REF\u002A\u002A,2*%
X61250000Y-82750000D03*
%TD*%
D16*
%TO.P,REF\u002A\u002A,1*%
%TO.N,N/C*%
X100170000Y-182230000D03*
D19*
%TO.P,REF\u002A\u002A,2*%
X110330000Y-182230000D03*
%TD*%
D13*
%TO.P,REF\u002A\u002A,1*%
%TO.N,N/C*%
X101750000Y-139500000D03*
D14*
%TO.P,REF\u002A\u002A,2*%
X101750000Y-137500000D03*
%TD*%
D16*
%TO.P,REF\u002A\u002A,1*%
%TO.N,N/C*%
X65920000Y-153750000D03*
D19*
%TO.P,REF\u002A\u002A,2*%
X76080000Y-153750000D03*
%TD*%
D16*
%TO.P,REF\u002A\u002A,1*%
%TO.N,N/C*%
X98080000Y-224500000D03*
D19*
%TO.P,REF\u002A\u002A,2*%
X87920000Y-224500000D03*
%TD*%
D16*
%TO.P,REF\u002A\u002A,1*%
%TO.N,N/C*%
X127250000Y-150750000D03*
D19*
%TO.P,REF\u002A\u002A,2*%
X127250000Y-160910000D03*
%TD*%
D16*
%TO.P,REF\u002A\u002A,1*%
%TO.N,N/C*%
X65920000Y-231000000D03*
D19*
%TO.P,REF\u002A\u002A,2*%
X76080000Y-231000000D03*
%TD*%
D16*
%TO.P,REF\u002A\u002A,1*%
%TO.N,N/C*%
X123000000Y-225910000D03*
D19*
%TO.P,REF\u002A\u002A,2*%
X123000000Y-215750000D03*
%TD*%
D27*
%TO.P,REF\u002A\u002A,1*%
%TO.N,N/C*%
X131300000Y-121200000D03*
D28*
%TO.P,REF\u002A\u002A,2*%
X128760000Y-121200000D03*
%TO.P,REF\u002A\u002A,3*%
X126220000Y-121200000D03*
%TD*%
D20*
%TO.P,REF\u002A\u002A,1*%
%TO.N,N/C*%
X94512755Y-122120000D03*
D21*
%TO.P,REF\u002A\u002A,2*%
X94512755Y-114500000D03*
%TD*%
D13*
%TO.P,REF\u002A\u002A,1*%
%TO.N,N/C*%
X62250000Y-222500000D03*
D14*
%TO.P,REF\u002A\u002A,2*%
X62250000Y-224500000D03*
%TD*%
D26*
%TO.P,REF\u002A\u002A,1*%
%TO.N,N/C*%
X58500000Y-73000000D03*
%TO.P,REF\u002A\u002A,2*%
X58500000Y-68000000D03*
%TD*%
D17*
%TO.P,REF\u002A\u002A,1*%
%TO.N,N/C*%
X146750000Y-97750000D03*
D18*
%TO.P,REF\u002A\u002A,2*%
X146750000Y-102750000D03*
%TO.P,REF\u002A\u002A,3*%
X146750000Y-107750000D03*
%TD*%
D24*
%TO.P,REF\u002A\u002A,1*%
%TO.N,N/C*%
X95000000Y-172480000D03*
D25*
%TO.P,REF\u002A\u002A,2*%
X95000000Y-175020000D03*
%TO.P,REF\u002A\u002A,3*%
X95000000Y-177560000D03*
%TO.P,REF\u002A\u002A,4*%
X95000000Y-180100000D03*
%TO.P,REF\u002A\u002A,5*%
X95000000Y-182640000D03*
%TO.P,REF\u002A\u002A,6*%
X95000000Y-185180000D03*
%TO.P,REF\u002A\u002A,7*%
X95000000Y-187720000D03*
%TO.P,REF\u002A\u002A,8*%
X95000000Y-190260000D03*
%TO.P,REF\u002A\u002A,9*%
X95000000Y-192800000D03*
%TO.P,REF\u002A\u002A,10*%
X95000000Y-195340000D03*
%TO.P,REF\u002A\u002A,11*%
X95000000Y-197880000D03*
%TO.P,REF\u002A\u002A,12*%
X95000000Y-200420000D03*
%TO.P,REF\u002A\u002A,13*%
X95000000Y-202960000D03*
%TO.P,REF\u002A\u002A,14*%
X95000000Y-205500000D03*
%TD*%
D16*
%TO.P,REF\u002A\u002A,1*%
%TO.N,N/C*%
X65920000Y-147250000D03*
D19*
%TO.P,REF\u002A\u002A,2*%
X76080000Y-147250000D03*
%TD*%
D29*
%TO.P,REF\u002A\u002A,1*%
%TO.N,N/C*%
X84262755Y-112500000D03*
D30*
%TO.P,REF\u002A\u002A,2*%
X76762755Y-112500000D03*
%TD*%
D16*
%TO.P,REF\u002A\u002A,1*%
%TO.N,N/C*%
X93750000Y-63620000D03*
D19*
%TO.P,REF\u002A\u002A,2*%
X93750000Y-48380000D03*
%TD*%
D16*
%TO.P,REF\u002A\u002A,1*%
%TO.N,N/C*%
X98080000Y-221250000D03*
D19*
%TO.P,REF\u002A\u002A,2*%
X87920000Y-221250000D03*
%TD*%
D24*
%TO.P,REF\u002A\u002A,1*%
%TO.N,N/C*%
X109450000Y-148500000D03*
D25*
%TO.P,REF\u002A\u002A,2*%
X111990000Y-148500000D03*
%TO.P,REF\u002A\u002A,3*%
X114530000Y-148500000D03*
%TO.P,REF\u002A\u002A,4*%
X117070000Y-148500000D03*
%TD*%
D16*
%TO.P,REF\u002A\u002A,1*%
%TO.N,N/C*%
X100170000Y-185480000D03*
D19*
%TO.P,REF\u002A\u002A,2*%
X110330000Y-185480000D03*
%TD*%
D26*
%TO.P,REF\u002A\u002A,1*%
%TO.N,N/C*%
X140500000Y-168250000D03*
%TO.P,REF\u002A\u002A,2*%
X140500000Y-163250000D03*
%TD*%
D13*
%TO.P,REF\u002A\u002A,1*%
%TO.N,N/C*%
X131000000Y-142750000D03*
D14*
%TO.P,REF\u002A\u002A,2*%
X131000000Y-144750000D03*
%TD*%
D16*
%TO.P,REF\u002A\u002A,1*%
%TO.N,N/C*%
X130500000Y-150750000D03*
D19*
%TO.P,REF\u002A\u002A,2*%
X130500000Y-160910000D03*
%TD*%
D16*
%TO.P,REF\u002A\u002A,1*%
%TO.N,N/C*%
X98080000Y-218000000D03*
D19*
%TO.P,REF\u002A\u002A,2*%
X87920000Y-218000000D03*
%TD*%
D29*
%TO.P,REF\u002A\u002A,1*%
%TO.N,N/C*%
X122762755Y-112500000D03*
D30*
%TO.P,REF\u002A\u002A,2*%
X115262755Y-112500000D03*
%TD*%
D16*
%TO.P,REF\u002A\u002A,1*%
%TO.N,N/C*%
X85000000Y-180230000D03*
D19*
%TO.P,REF\u002A\u002A,2*%
X85000000Y-190390000D03*
%TD*%
D16*
%TO.P,REF\u002A\u002A,1*%
%TO.N,N/C*%
X129000000Y-225910000D03*
D19*
%TO.P,REF\u002A\u002A,2*%
X129000000Y-215750000D03*
%TD*%
D26*
%TO.P,REF\u002A\u002A,1*%
%TO.N,N/C*%
X138750000Y-217750000D03*
%TO.P,REF\u002A\u002A,2*%
X138750000Y-212750000D03*
%TD*%
D13*
%TO.P,REF\u002A\u002A,1*%
%TO.N,N/C*%
X101750000Y-229750000D03*
D14*
%TO.P,REF\u002A\u002A,2*%
X101750000Y-227750000D03*
%TD*%
D16*
%TO.P,REF\u002A\u002A,1*%
%TO.N,N/C*%
X65920000Y-221250000D03*
D19*
%TO.P,REF\u002A\u002A,2*%
X76080000Y-221250000D03*
%TD*%
D24*
%TO.P,REF\u002A\u002A,1*%
%TO.N,N/C*%
X79475000Y-150500000D03*
D25*
%TO.P,REF\u002A\u002A,2*%
X82015000Y-150500000D03*
%TO.P,REF\u002A\u002A,3*%
X84555000Y-150500000D03*
%TD*%
D16*
%TO.P,REF\u002A\u002A,1*%
%TO.N,N/C*%
X65920000Y-214750000D03*
D19*
%TO.P,REF\u002A\u002A,2*%
X76080000Y-214750000D03*
%TD*%
D22*
%TO.P,REF\u002A\u002A,1*%
%TO.N,N/C*%
X80000000Y-82750000D03*
D23*
%TO.P,REF\u002A\u002A,2*%
X75000000Y-82750000D03*
%TD*%
D13*
%TO.P,REF\u002A\u002A,1*%
%TO.N,N/C*%
X62250000Y-216000000D03*
D14*
%TO.P,REF\u002A\u002A,2*%
X62250000Y-218000000D03*
%TD*%
D16*
%TO.P,REF\u002A\u002A,1*%
%TO.N,N/C*%
X65920000Y-218000000D03*
D19*
%TO.P,REF\u002A\u002A,2*%
X76080000Y-218000000D03*
%TD*%
D26*
%TO.P,REF\u002A\u002A,1*%
%TO.N,N/C*%
X80000000Y-73000000D03*
%TO.P,REF\u002A\u002A,2*%
X80000000Y-68000000D03*
%TD*%
D16*
%TO.P,REF\u002A\u002A,1*%
%TO.N,N/C*%
X65920000Y-137500000D03*
D19*
%TO.P,REF\u002A\u002A,2*%
X76080000Y-137500000D03*
%TD*%
D16*
%TO.P,REF\u002A\u002A,1*%
%TO.N,N/C*%
X98080000Y-147250000D03*
D19*
%TO.P,REF\u002A\u002A,2*%
X87920000Y-147250000D03*
%TD*%
D16*
%TO.P,REF\u002A\u002A,1*%
%TO.N,N/C*%
X98080000Y-140750000D03*
D19*
%TO.P,REF\u002A\u002A,2*%
X87920000Y-140750000D03*
%TD*%
D13*
%TO.P,REF\u002A\u002A,1*%
%TO.N,N/C*%
X71750000Y-175000000D03*
D14*
%TO.P,REF\u002A\u002A,2*%
X71750000Y-173000000D03*
%TD*%
D24*
%TO.P,REF\u002A\u002A,1*%
%TO.N,N/C*%
X79475000Y-137500000D03*
D25*
%TO.P,REF\u002A\u002A,2*%
X82015000Y-137500000D03*
%TO.P,REF\u002A\u002A,3*%
X84555000Y-137500000D03*
%TD*%
D16*
%TO.P,REF\u002A\u002A,1*%
%TO.N,N/C*%
X69000000Y-63620000D03*
D19*
%TO.P,REF\u002A\u002A,2*%
X69000000Y-48380000D03*
%TD*%
D20*
%TO.P,REF\u002A\u002A,1*%
%TO.N,N/C*%
X105012755Y-102875000D03*
D21*
%TO.P,REF\u002A\u002A,2*%
X105012755Y-110495000D03*
%TD*%
D26*
%TO.P,REF\u002A\u002A,1*%
%TO.N,N/C*%
X107500000Y-73000000D03*
%TO.P,REF\u002A\u002A,2*%
X107500000Y-68000000D03*
%TD*%
D22*
%TO.P,REF\u002A\u002A,1*%
%TO.N,N/C*%
X143735000Y-40250000D03*
D23*
%TO.P,REF\u002A\u002A,2*%
X148735000Y-40250000D03*
%TD*%
D22*
%TO.P,REF\u002A\u002A,1*%
%TO.N,N/C*%
X144735000Y-142750000D03*
D23*
%TO.P,REF\u002A\u002A,2*%
X149735000Y-142750000D03*
%TD*%
D24*
%TO.P,REF\u002A\u002A,1*%
%TO.N,N/C*%
X77000000Y-205470000D03*
D25*
%TO.P,REF\u002A\u002A,2*%
X77000000Y-202930000D03*
%TO.P,REF\u002A\u002A,3*%
X77000000Y-200390000D03*
%TO.P,REF\u002A\u002A,4*%
X77000000Y-197850000D03*
%TO.P,REF\u002A\u002A,5*%
X77000000Y-195310000D03*
%TO.P,REF\u002A\u002A,6*%
X77000000Y-192770000D03*
%TO.P,REF\u002A\u002A,7*%
X77000000Y-190230000D03*
%TO.P,REF\u002A\u002A,8*%
X77000000Y-187690000D03*
%TO.P,REF\u002A\u002A,9*%
X77000000Y-185150000D03*
%TO.P,REF\u002A\u002A,10*%
X77000000Y-182610000D03*
%TO.P,REF\u002A\u002A,11*%
X77000000Y-180070000D03*
%TO.P,REF\u002A\u002A,12*%
X77000000Y-177530000D03*
%TO.P,REF\u002A\u002A,13*%
X77000000Y-174990000D03*
%TO.P,REF\u002A\u002A,14*%
X77000000Y-172450000D03*
%TD*%
D24*
%TO.P,REF\u002A\u002A,1*%
%TO.N,N/C*%
X133500000Y-172480000D03*
D25*
%TO.P,REF\u002A\u002A,2*%
X133500000Y-175020000D03*
%TO.P,REF\u002A\u002A,3*%
X133500000Y-177560000D03*
%TO.P,REF\u002A\u002A,4*%
X133500000Y-180100000D03*
%TO.P,REF\u002A\u002A,5*%
X133500000Y-182640000D03*
%TO.P,REF\u002A\u002A,6*%
X133500000Y-185180000D03*
%TO.P,REF\u002A\u002A,7*%
X133500000Y-187720000D03*
%TO.P,REF\u002A\u002A,8*%
X133500000Y-190260000D03*
%TO.P,REF\u002A\u002A,9*%
X133500000Y-192800000D03*
%TO.P,REF\u002A\u002A,10*%
X133500000Y-195340000D03*
%TO.P,REF\u002A\u002A,11*%
X133500000Y-197880000D03*
%TO.P,REF\u002A\u002A,12*%
X133500000Y-200420000D03*
%TO.P,REF\u002A\u002A,13*%
X133500000Y-202960000D03*
%TO.P,REF\u002A\u002A,14*%
X133500000Y-205500000D03*
%TD*%
D16*
%TO.P,REF\u002A\u002A,1*%
%TO.N,N/C*%
X65920000Y-140750000D03*
D19*
%TO.P,REF\u002A\u002A,2*%
X76080000Y-140750000D03*
%TD*%
D24*
%TO.P,REF\u002A\u002A,1*%
%TO.N,N/C*%
X115500000Y-205480000D03*
D25*
%TO.P,REF\u002A\u002A,2*%
X115500000Y-202940000D03*
%TO.P,REF\u002A\u002A,3*%
X115500000Y-200400000D03*
%TO.P,REF\u002A\u002A,4*%
X115500000Y-197860000D03*
%TO.P,REF\u002A\u002A,5*%
X115500000Y-195320000D03*
%TO.P,REF\u002A\u002A,6*%
X115500000Y-192780000D03*
%TO.P,REF\u002A\u002A,7*%
X115500000Y-190240000D03*
%TO.P,REF\u002A\u002A,8*%
X115500000Y-187700000D03*
%TO.P,REF\u002A\u002A,9*%
X115500000Y-185160000D03*
%TO.P,REF\u002A\u002A,10*%
X115500000Y-182620000D03*
%TO.P,REF\u002A\u002A,11*%
X115500000Y-180080000D03*
%TO.P,REF\u002A\u002A,12*%
X115500000Y-177540000D03*
%TO.P,REF\u002A\u002A,13*%
X115500000Y-175000000D03*
%TO.P,REF\u002A\u002A,14*%
X115500000Y-172460000D03*
%TD*%
D31*
%TO.N,*%
X140500000Y-147750000D03*
X140500000Y-153750000D03*
X143250000Y-199000000D03*
X143250000Y-196250000D03*
X150750000Y-199000000D03*
X150750000Y-196250000D03*
X118500000Y-165750000D03*
X87750000Y-156500000D03*
X109450000Y-156500000D03*
X133500000Y-211750000D03*
X91000000Y-168500000D03*
X117000000Y-159500000D03*
X129750000Y-97750000D03*
X109500000Y-159500000D03*
X77250000Y-168500000D03*
X133500000Y-218750000D03*
X129750000Y-112000000D03*
X73000000Y-156500000D03*
X82250000Y-168500000D03*
X135250000Y-169250000D03*
X119500000Y-215750000D03*
X73000000Y-168500000D03*
X118500000Y-169250000D03*
X117000000Y-153750000D03*
X122500000Y-162250000D03*
X122500000Y-165750000D03*
X116000000Y-215750000D03*
X119500000Y-211750000D03*
X91000000Y-211750000D03*
X84500000Y-168500000D03*
X124500000Y-153750000D03*
X144750000Y-159750000D03*
X116000000Y-211750000D03*
X109000000Y-211750000D03*
X144750000Y-150750000D03*
X124500000Y-178500000D03*
X122500000Y-169250000D03*
X135250000Y-162250000D03*
X109500000Y-153750000D03*
X118500000Y-162250000D03*
X112500000Y-215750000D03*
X112500000Y-211750000D03*
%TD*%
D32*
%TO.N,*%
X140500000Y-153750000D02*
X140500000Y-147750000D01*
X150750000Y-199000000D02*
X143250000Y-199000000D01*
X143250000Y-196250000D02*
X150750000Y-196250000D01*
X144750000Y-159750000D02*
X144750000Y-150750000D01*
X109500000Y-153750000D02*
X117000000Y-153750000D01*
X117000000Y-159500000D02*
X109500000Y-159500000D01*
X109450000Y-156500000D02*
X87750000Y-156500000D01*
X91000000Y-211750000D02*
X109000000Y-211750000D01*
X124500000Y-153750000D02*
X124500000Y-178500000D01*
X129750000Y-97750000D02*
X129750000Y-112000000D01*
X73000000Y-168500000D02*
X73000000Y-156500000D01*
%TD*%
M02*
