%TF.GenerationSoftware,KiCad,Pcbnew,(6.0.9)*%
%TF.CreationDate,2022-12-17T23:36:50-03:00*%
%TF.ProjectId,Amplifier TDA7269A,416d706c-6966-4696-9572-205444413732,rev?*%
%TF.SameCoordinates,Original*%
%TF.FileFunction,Copper,L2,Bot*%
%TF.FilePolarity,Positive*%
%FSLAX46Y46*%
G04 Gerber Fmt 4.6, Leading zero omitted, Abs format (unit mm)*
G04 Created by KiCad (PCBNEW (6.0.9)) date 2022-12-17 23:36:50*
%MOMM*%
%LPD*%
G01*
G04 APERTURE LIST*
%TA.AperFunction,NonConductor*%
%ADD10C,0.200000*%
%TD*%
%TA.AperFunction,ComponentPad*%
%ADD11C,1.200000*%
%TD*%
%TA.AperFunction,ComponentPad*%
%ADD12R,1.200000X1.200000*%
%TD*%
%TA.AperFunction,ComponentPad*%
%ADD13R,1.700000X1.700000*%
%TD*%
%TA.AperFunction,ComponentPad*%
%ADD14O,1.700000X1.700000*%
%TD*%
%TA.AperFunction,ComponentPad*%
%ADD15C,2.000000*%
%TD*%
%TA.AperFunction,ComponentPad*%
%ADD16O,1.600000X1.600000*%
%TD*%
%TA.AperFunction,ComponentPad*%
%ADD17C,1.600000*%
%TD*%
%TA.AperFunction,ComponentPad*%
%ADD18O,3.960000X1.980000*%
%TD*%
%TA.AperFunction,ComponentPad*%
%ADD19R,3.960000X1.980000*%
%TD*%
%TA.AperFunction,ComponentPad*%
%ADD20O,1.800000X1.800000*%
%TD*%
%TA.AperFunction,ComponentPad*%
%ADD21R,1.800000X1.800000*%
%TD*%
%TA.AperFunction,ViaPad*%
%ADD22C,1.600000*%
%TD*%
%TA.AperFunction,Conductor*%
%ADD23C,0.850000*%
%TD*%
G04 APERTURE END LIST*
D10*
X54000000Y-88500000D02*
G75*
G03*
X54000000Y-88500000I-2500000J0D01*
G01*
X54000000Y-138500000D02*
G75*
G03*
X54000000Y-138500000I-2500000J0D01*
G01*
X126750000Y-151750000D02*
X59750000Y-151750000D01*
X59750000Y-151750000D02*
X59750000Y-102500000D01*
X59750000Y-102500000D02*
X126750000Y-102500000D01*
X126750000Y-102500000D02*
X126750000Y-151750000D01*
X242500000Y-109750000D02*
X242500000Y-119750000D01*
X150750000Y-130250000D02*
X167250000Y-130250000D01*
X242500000Y-60000000D02*
X242500000Y-70000000D01*
X130000000Y-114750000D02*
X140000000Y-114750000D01*
X135000000Y-109750000D02*
X135000000Y-119750000D01*
X179500000Y-54500000D02*
G75*
G03*
X179500000Y-54500000I-1000000J0D01*
G01*
X116500000Y-54500000D02*
G75*
G03*
X116500000Y-54500000I-1000000J0D01*
G01*
X43250000Y-146750000D02*
X59750000Y-151750000D01*
X150750000Y-101750000D02*
X250750000Y-101750000D01*
X46500000Y-138500000D02*
X56500000Y-138500000D01*
X143250000Y-56750000D02*
X126750000Y-51750000D01*
X116500000Y-149000000D02*
G75*
G03*
X116500000Y-149000000I-1000000J0D01*
G01*
X154000000Y-138500000D02*
X164000000Y-138500000D01*
X72000000Y-54500000D02*
G75*
G03*
X72000000Y-54500000I-1000000J0D01*
G01*
X126750000Y-73250000D02*
X143250000Y-73250000D01*
X43250000Y-130250000D02*
X59750000Y-130250000D01*
X245000000Y-114750000D02*
G75*
G03*
X245000000Y-114750000I-2500000J0D01*
G01*
X126750000Y-102500000D02*
X143250000Y-106500000D01*
X143250000Y-123000000D02*
X126750000Y-123000000D01*
X43250000Y-96750000D02*
X59750000Y-101000000D01*
X161500000Y-88500000D02*
G75*
G03*
X161500000Y-88500000I-2500000J0D01*
G01*
X234250000Y-73250000D02*
X250750000Y-73250000D01*
X237500000Y-65000000D02*
X247500000Y-65000000D01*
X159000000Y-83500000D02*
X159000000Y-93500000D01*
X250750000Y-123000000D02*
X234250000Y-123000000D01*
X130000000Y-65000000D02*
X140000000Y-65000000D01*
X150750000Y-96750000D02*
X167250000Y-101000000D01*
X237500000Y-114750000D02*
X247500000Y-114750000D01*
X51500000Y-83500000D02*
X51500000Y-93500000D01*
X51500000Y-133500000D02*
X51500000Y-143500000D01*
X43250000Y-51750000D02*
X143250000Y-51750000D01*
X143250000Y-51750000D02*
X143250000Y-151750000D01*
X143250000Y-151750000D02*
X43250000Y-151750000D01*
X43250000Y-151750000D02*
X43250000Y-51750000D01*
X137500000Y-114750000D02*
G75*
G03*
X137500000Y-114750000I-2500000J0D01*
G01*
X179500000Y-149000000D02*
G75*
G03*
X179500000Y-149000000I-1000000J0D01*
G01*
X43250000Y-101750000D02*
X143250000Y-101750000D01*
X245000000Y-65000000D02*
G75*
G03*
X245000000Y-65000000I-2500000J0D01*
G01*
X135000000Y-60000000D02*
X135000000Y-70000000D01*
X137500000Y-65000000D02*
G75*
G03*
X137500000Y-65000000I-2500000J0D01*
G01*
X159000000Y-133500000D02*
X159000000Y-143500000D01*
X154000000Y-88500000D02*
X164000000Y-88500000D01*
X150750000Y-146750000D02*
X167250000Y-151750000D01*
X224000000Y-54500000D02*
G75*
G03*
X224000000Y-54500000I-1000000J0D01*
G01*
X224000000Y-149000000D02*
G75*
G03*
X224000000Y-149000000I-1000000J0D01*
G01*
X234250000Y-151750000D02*
X167250000Y-151750000D01*
X167250000Y-151750000D02*
X167250000Y-102500000D01*
X167250000Y-102500000D02*
X234250000Y-102500000D01*
X234250000Y-102500000D02*
X234250000Y-151750000D01*
X250750000Y-56750000D02*
X234250000Y-51750000D01*
X234250000Y-102500000D02*
X250750000Y-106500000D01*
X72000000Y-149000000D02*
G75*
G03*
X72000000Y-149000000I-1000000J0D01*
G01*
X150750000Y-80250000D02*
X167250000Y-80250000D01*
X167250000Y-51750000D02*
X234250000Y-51750000D01*
X234250000Y-51750000D02*
X234250000Y-101000000D01*
X234250000Y-101000000D02*
X167250000Y-101000000D01*
X167250000Y-101000000D02*
X167250000Y-51750000D01*
X59750000Y-51750000D02*
X126750000Y-51750000D01*
X126750000Y-51750000D02*
X126750000Y-101000000D01*
X126750000Y-101000000D02*
X59750000Y-101000000D01*
X59750000Y-101000000D02*
X59750000Y-51750000D01*
X46500000Y-88500000D02*
X56500000Y-88500000D01*
X43250000Y-80250000D02*
X59750000Y-80250000D01*
X150750000Y-51750000D02*
X250750000Y-51750000D01*
X250750000Y-51750000D02*
X250750000Y-151750000D01*
X250750000Y-151750000D02*
X150750000Y-151750000D01*
X150750000Y-151750000D02*
X150750000Y-51750000D01*
X161500000Y-138500000D02*
G75*
G03*
X161500000Y-138500000I-2500000J0D01*
G01*
D11*
%TO.P,REF\u002A\u002A,2*%
%TO.N,N/C*%
X218196410Y-111750000D03*
D12*
%TO.P,REF\u002A\u002A,1*%
X216196410Y-111750000D03*
%TD*%
D13*
%TO.P,REF\u002A\u002A,1*%
%TO.N,N/C*%
X210975000Y-105000000D03*
D14*
%TO.P,REF\u002A\u002A,2*%
X213515000Y-105000000D03*
%TO.P,REF\u002A\u002A,3*%
X216055000Y-105000000D03*
%TD*%
%TO.P,REF\u002A\u002A,3*%
%TO.N,N/C*%
X185445000Y-98500000D03*
%TO.P,REF\u002A\u002A,2*%
X187985000Y-98500000D03*
D13*
%TO.P,REF\u002A\u002A,1*%
X190525000Y-98500000D03*
%TD*%
D14*
%TO.P,REF\u002A\u002A,3*%
%TO.N,N/C*%
X77945000Y-98500000D03*
%TO.P,REF\u002A\u002A,2*%
X80485000Y-98500000D03*
D13*
%TO.P,REF\u002A\u002A,1*%
X83025000Y-98500000D03*
%TD*%
%TO.P,REF\u002A\u002A,1*%
%TO.N,N/C*%
X103475000Y-104750000D03*
D14*
%TO.P,REF\u002A\u002A,2*%
X106015000Y-104750000D03*
%TO.P,REF\u002A\u002A,3*%
X108555000Y-104750000D03*
%TD*%
D15*
%TO.P,REF\u002A\u002A,2*%
%TO.N,N/C*%
X185250000Y-77920000D03*
%TO.P,REF\u002A\u002A,1*%
X185250000Y-72920000D03*
%TD*%
%TO.P,REF\u002A\u002A,2*%
%TO.N,N/C*%
X108750000Y-125580000D03*
%TO.P,REF\u002A\u002A,1*%
X108750000Y-130580000D03*
%TD*%
%TO.P,REF\u002A\u002A,2*%
%TO.N,N/C*%
X103000000Y-125580000D03*
%TO.P,REF\u002A\u002A,1*%
X103000000Y-130580000D03*
%TD*%
D16*
%TO.P,REF\u002A\u002A,2*%
%TO.N,N/C*%
X73250000Y-80580000D03*
D17*
%TO.P,REF\u002A\u002A,1*%
X73250000Y-70420000D03*
%TD*%
D15*
%TO.P,REF\u002A\u002A,2*%
%TO.N,N/C*%
X77750000Y-77920000D03*
%TO.P,REF\u002A\u002A,1*%
X77750000Y-72920000D03*
%TD*%
D18*
%TO.P,REF\u002A\u002A,2*%
%TO.N,N/C*%
X173946410Y-141000000D03*
D19*
%TO.P,REF\u002A\u002A,1*%
X173946410Y-136000000D03*
%TD*%
D16*
%TO.P,REF\u002A\u002A,2*%
%TO.N,N/C*%
X105500000Y-85580000D03*
D17*
%TO.P,REF\u002A\u002A,1*%
X105500000Y-75420000D03*
%TD*%
D18*
%TO.P,REF\u002A\u002A,3*%
%TO.N,N/C*%
X173936410Y-116205000D03*
%TO.P,REF\u002A\u002A,2*%
X173936410Y-111205000D03*
D19*
%TO.P,REF\u002A\u002A,1*%
X173936410Y-106205000D03*
%TD*%
D16*
%TO.P,REF\u002A\u002A,2*%
%TO.N,N/C*%
X109000000Y-85580000D03*
D17*
%TO.P,REF\u002A\u002A,1*%
X109000000Y-75420000D03*
%TD*%
D11*
%TO.P,REF\u002A\u002A,2*%
%TO.N,N/C*%
X75803590Y-91750000D03*
D12*
%TO.P,REF\u002A\u002A,1*%
X77803590Y-91750000D03*
%TD*%
D18*
%TO.P,REF\u002A\u002A,3*%
%TO.N,N/C*%
X120063590Y-87295000D03*
%TO.P,REF\u002A\u002A,2*%
X120063590Y-92295000D03*
D19*
%TO.P,REF\u002A\u002A,1*%
X120063590Y-97295000D03*
%TD*%
D16*
%TO.P,REF\u002A\u002A,2*%
%TO.N,N/C*%
X180750000Y-80580000D03*
D17*
%TO.P,REF\u002A\u002A,1*%
X180750000Y-70420000D03*
%TD*%
D16*
%TO.P,REF\u002A\u002A,2*%
%TO.N,N/C*%
X105500000Y-72910000D03*
D17*
%TO.P,REF\u002A\u002A,1*%
X105500000Y-62750000D03*
%TD*%
D18*
%TO.P,REF\u002A\u002A,2*%
%TO.N,N/C*%
X227553590Y-62500000D03*
D19*
%TO.P,REF\u002A\u002A,1*%
X227553590Y-67500000D03*
%TD*%
D11*
%TO.P,REF\u002A\u002A,2*%
%TO.N,N/C*%
X100946410Y-111750000D03*
D12*
%TO.P,REF\u002A\u002A,1*%
X102946410Y-111750000D03*
%TD*%
D16*
%TO.P,REF\u002A\u002A,2*%
%TO.N,N/C*%
X95000000Y-80580000D03*
D17*
%TO.P,REF\u002A\u002A,1*%
X95000000Y-70420000D03*
%TD*%
D15*
%TO.P,REF\u002A\u002A,2*%
%TO.N,N/C*%
X81000000Y-115250000D03*
%TO.P,REF\u002A\u002A,1*%
X81000000Y-120250000D03*
%TD*%
D16*
%TO.P,REF\u002A\u002A,2*%
%TO.N,N/C*%
X91500000Y-80580000D03*
D17*
%TO.P,REF\u002A\u002A,1*%
X91500000Y-70420000D03*
%TD*%
D16*
%TO.P,REF\u002A\u002A,2*%
%TO.N,N/C*%
X199000000Y-80580000D03*
D17*
%TO.P,REF\u002A\u002A,1*%
X199000000Y-70420000D03*
%TD*%
D11*
%TO.P,REF\u002A\u002A,2*%
%TO.N,N/C*%
X193053590Y-91750000D03*
D12*
%TO.P,REF\u002A\u002A,1*%
X191053590Y-91750000D03*
%TD*%
D11*
%TO.P,REF\u002A\u002A,2*%
%TO.N,N/C*%
X85553590Y-91750000D03*
D12*
%TO.P,REF\u002A\u002A,1*%
X83553590Y-91750000D03*
%TD*%
D16*
%TO.P,REF\u002A\u002A,2*%
%TO.N,N/C*%
X109000000Y-72910000D03*
D17*
%TO.P,REF\u002A\u002A,1*%
X109000000Y-62750000D03*
%TD*%
D16*
%TO.P,REF\u002A\u002A,2*%
%TO.N,N/C*%
X74000000Y-130500000D03*
D17*
%TO.P,REF\u002A\u002A,1*%
X63840000Y-130500000D03*
%TD*%
D15*
%TO.P,REF\u002A\u002A,2*%
%TO.N,N/C*%
X83500000Y-77920000D03*
%TO.P,REF\u002A\u002A,1*%
X83500000Y-72920000D03*
%TD*%
%TO.P,REF\u002A\u002A,2*%
%TO.N,N/C*%
X191000000Y-77920000D03*
%TO.P,REF\u002A\u002A,1*%
X191000000Y-72920000D03*
%TD*%
D16*
%TO.P,REF\u002A\u002A,2*%
%TO.N,N/C*%
X77500000Y-130590000D03*
D17*
%TO.P,REF\u002A\u002A,1*%
X77500000Y-140750000D03*
%TD*%
D16*
%TO.P,REF\u002A\u002A,2*%
%TO.N,N/C*%
X74000000Y-127000000D03*
D17*
%TO.P,REF\u002A\u002A,1*%
X63840000Y-127000000D03*
%TD*%
D16*
%TO.P,REF\u002A\u002A,2*%
%TO.N,N/C*%
X98500000Y-122920000D03*
D17*
%TO.P,REF\u002A\u002A,1*%
X98500000Y-133080000D03*
%TD*%
D18*
%TO.P,REF\u002A\u002A,3*%
%TO.N,N/C*%
X227563590Y-87295000D03*
%TO.P,REF\u002A\u002A,2*%
X227563590Y-92295000D03*
D19*
%TO.P,REF\u002A\u002A,1*%
X227563590Y-97295000D03*
%TD*%
D16*
%TO.P,REF\u002A\u002A,2*%
%TO.N,N/C*%
X216500000Y-85580000D03*
D17*
%TO.P,REF\u002A\u002A,1*%
X216500000Y-75420000D03*
%TD*%
D16*
%TO.P,REF\u002A\u002A,2*%
%TO.N,N/C*%
X69750000Y-80580000D03*
D17*
%TO.P,REF\u002A\u002A,1*%
X69750000Y-70420000D03*
%TD*%
D16*
%TO.P,REF\u002A\u002A,2*%
%TO.N,N/C*%
X213000000Y-72910000D03*
D17*
%TO.P,REF\u002A\u002A,1*%
X213000000Y-62750000D03*
%TD*%
D16*
%TO.P,REF\u002A\u002A,2*%
%TO.N,N/C*%
X206000000Y-122920000D03*
D17*
%TO.P,REF\u002A\u002A,1*%
X206000000Y-133080000D03*
%TD*%
D18*
%TO.P,REF\u002A\u002A,2*%
%TO.N,N/C*%
X120053590Y-62500000D03*
D19*
%TO.P,REF\u002A\u002A,1*%
X120053590Y-67500000D03*
%TD*%
D16*
%TO.P,REF\u002A\u002A,2*%
%TO.N,N/C*%
X202500000Y-80580000D03*
D17*
%TO.P,REF\u002A\u002A,1*%
X202500000Y-70420000D03*
%TD*%
D18*
%TO.P,REF\u002A\u002A,3*%
%TO.N,N/C*%
X66436410Y-116205000D03*
%TO.P,REF\u002A\u002A,2*%
X66436410Y-111205000D03*
D19*
%TO.P,REF\u002A\u002A,1*%
X66436410Y-106205000D03*
%TD*%
D11*
%TO.P,REF\u002A\u002A,2*%
%TO.N,N/C*%
X183303590Y-91750000D03*
D12*
%TO.P,REF\u002A\u002A,1*%
X185303590Y-91750000D03*
%TD*%
D16*
%TO.P,REF\u002A\u002A,2*%
%TO.N,N/C*%
X188500000Y-117920000D03*
D17*
%TO.P,REF\u002A\u002A,1*%
X188500000Y-128080000D03*
%TD*%
D16*
%TO.P,REF\u002A\u002A,2*%
%TO.N,N/C*%
X220750000Y-122920000D03*
D17*
%TO.P,REF\u002A\u002A,1*%
X220750000Y-133080000D03*
%TD*%
D16*
%TO.P,REF\u002A\u002A,2*%
%TO.N,N/C*%
X188500000Y-130590000D03*
D17*
%TO.P,REF\u002A\u002A,1*%
X188500000Y-140750000D03*
%TD*%
D16*
%TO.P,REF\u002A\u002A,2*%
%TO.N,N/C*%
X216500000Y-72910000D03*
D17*
%TO.P,REF\u002A\u002A,1*%
X216500000Y-62750000D03*
%TD*%
D16*
%TO.P,REF\u002A\u002A,2*%
%TO.N,N/C*%
X202500000Y-122920000D03*
D17*
%TO.P,REF\u002A\u002A,1*%
X202500000Y-133080000D03*
%TD*%
D16*
%TO.P,REF\u002A\u002A,2*%
%TO.N,N/C*%
X224250000Y-122920000D03*
D17*
%TO.P,REF\u002A\u002A,1*%
X224250000Y-133080000D03*
%TD*%
D16*
%TO.P,REF\u002A\u002A,2*%
%TO.N,N/C*%
X213000000Y-85580000D03*
D17*
%TO.P,REF\u002A\u002A,1*%
X213000000Y-75420000D03*
%TD*%
D15*
%TO.P,REF\u002A\u002A,2*%
%TO.N,N/C*%
X216250000Y-125580000D03*
%TO.P,REF\u002A\u002A,1*%
X216250000Y-130580000D03*
%TD*%
D20*
%TO.P,TDA7265,11*%
%TO.N,N/C*%
X101750000Y-135750000D03*
%TO.P,TDA7265,10*%
X100050000Y-140830000D03*
%TO.P,TDA7265,9*%
X98350000Y-135750000D03*
%TO.P,TDA7265,8*%
X96650000Y-140830000D03*
%TO.P,TDA7265,7*%
X94950000Y-135750000D03*
%TO.P,TDA7265,6*%
X93250000Y-140830000D03*
%TO.P,TDA7265,5*%
X91550000Y-135750000D03*
%TO.P,TDA7265,4*%
X89850000Y-140830000D03*
%TO.P,TDA7265,3*%
X88150000Y-135750000D03*
%TO.P,TDA7265,2*%
X86450000Y-140830000D03*
D21*
%TO.P,TDA7265,1*%
X84750000Y-135750000D03*
%TD*%
D16*
%TO.P,REF\u002A\u002A,2*%
%TO.N,N/C*%
X91500000Y-122920000D03*
D17*
%TO.P,REF\u002A\u002A,1*%
X91500000Y-133080000D03*
%TD*%
D16*
%TO.P,REF\u002A\u002A,2*%
%TO.N,N/C*%
X113250000Y-122920000D03*
D17*
%TO.P,REF\u002A\u002A,1*%
X113250000Y-133080000D03*
%TD*%
D16*
%TO.P,REF\u002A\u002A,2*%
%TO.N,N/C*%
X177250000Y-80580000D03*
D17*
%TO.P,REF\u002A\u002A,1*%
X177250000Y-70420000D03*
%TD*%
D18*
%TO.P,REF\u002A\u002A,2*%
%TO.N,N/C*%
X66446410Y-141000000D03*
D19*
%TO.P,REF\u002A\u002A,1*%
X66446410Y-136000000D03*
%TD*%
D20*
%TO.P,TDA7269A,11*%
%TO.N,N/C*%
X209250000Y-135750000D03*
%TO.P,TDA7269A,10*%
X207550000Y-140830000D03*
%TO.P,TDA7269A,9*%
X205850000Y-135750000D03*
%TO.P,TDA7269A,8*%
X204150000Y-140830000D03*
%TO.P,TDA7269A,7*%
X202450000Y-135750000D03*
%TO.P,TDA7269A,6*%
X200750000Y-140830000D03*
%TO.P,TDA7269A,5*%
X199050000Y-135750000D03*
%TO.P,TDA7269A,4*%
X197350000Y-140830000D03*
%TO.P,TDA7269A,3*%
X195650000Y-135750000D03*
%TO.P,TDA7269A,2*%
X193950000Y-140830000D03*
D21*
%TO.P,TDA7269A,1*%
X192250000Y-135750000D03*
%TD*%
D16*
%TO.P,REF\u002A\u002A,2*%
%TO.N,N/C*%
X88000000Y-80580000D03*
D17*
%TO.P,REF\u002A\u002A,1*%
X88000000Y-70420000D03*
%TD*%
D20*
%TO.P,TDA7269A,11*%
%TO.N,N/C*%
X192250000Y-67750000D03*
%TO.P,TDA7269A,10*%
X193950000Y-62670000D03*
%TO.P,TDA7269A,9*%
X195650000Y-67750000D03*
%TO.P,TDA7269A,8*%
X197350000Y-62670000D03*
%TO.P,TDA7269A,7*%
X199050000Y-67750000D03*
%TO.P,TDA7269A,6*%
X200750000Y-62670000D03*
%TO.P,TDA7269A,5*%
X202450000Y-67750000D03*
%TO.P,TDA7269A,4*%
X204150000Y-62670000D03*
%TO.P,TDA7269A,3*%
X205850000Y-67750000D03*
%TO.P,TDA7269A,2*%
X207550000Y-62670000D03*
D21*
%TO.P,TDA7269A,1*%
X209250000Y-67750000D03*
%TD*%
D16*
%TO.P,REF\u002A\u002A,2*%
%TO.N,N/C*%
X95000000Y-122920000D03*
D17*
%TO.P,REF\u002A\u002A,1*%
X95000000Y-133080000D03*
%TD*%
D16*
%TO.P,REF\u002A\u002A,2*%
%TO.N,N/C*%
X195500000Y-80580000D03*
D17*
%TO.P,REF\u002A\u002A,1*%
X195500000Y-70420000D03*
%TD*%
D15*
%TO.P,REF\u002A\u002A,2*%
%TO.N,N/C*%
X210500000Y-125580000D03*
%TO.P,REF\u002A\u002A,1*%
X210500000Y-130580000D03*
%TD*%
D16*
%TO.P,REF\u002A\u002A,2*%
%TO.N,N/C*%
X81000000Y-130590000D03*
D17*
%TO.P,REF\u002A\u002A,1*%
X81000000Y-140750000D03*
%TD*%
D16*
%TO.P,REF\u002A\u002A,2*%
%TO.N,N/C*%
X199000000Y-122920000D03*
D17*
%TO.P,REF\u002A\u002A,1*%
X199000000Y-133080000D03*
%TD*%
D20*
%TO.P,TDA7269A,11*%
%TO.N,N/C*%
X84750000Y-67750000D03*
%TO.P,TDA7269A,10*%
X86450000Y-62670000D03*
%TO.P,TDA7269A,9*%
X88150000Y-67750000D03*
%TO.P,TDA7269A,8*%
X89850000Y-62670000D03*
%TO.P,TDA7269A,7*%
X91550000Y-67750000D03*
%TO.P,TDA7269A,6*%
X93250000Y-62670000D03*
%TO.P,TDA7269A,5*%
X94950000Y-67750000D03*
%TO.P,TDA7269A,4*%
X96650000Y-62670000D03*
%TO.P,TDA7269A,3*%
X98350000Y-67750000D03*
%TO.P,TDA7269A,2*%
X100050000Y-62670000D03*
D21*
%TO.P,TDA7269A,1*%
X101750000Y-67750000D03*
%TD*%
D16*
%TO.P,REF\u002A\u002A,2*%
%TO.N,N/C*%
X185000000Y-130590000D03*
D17*
%TO.P,REF\u002A\u002A,1*%
X185000000Y-140750000D03*
%TD*%
D11*
%TO.P,REF\u002A\u002A,2*%
%TO.N,N/C*%
X208446410Y-111750000D03*
D12*
%TO.P,REF\u002A\u002A,1*%
X210446410Y-111750000D03*
%TD*%
D16*
%TO.P,REF\u002A\u002A,2*%
%TO.N,N/C*%
X185000000Y-117920000D03*
D17*
%TO.P,REF\u002A\u002A,1*%
X185000000Y-128080000D03*
%TD*%
D22*
%TO.N,*%
X213392820Y-120000000D03*
X199000000Y-83348205D03*
X232446410Y-138250000D03*
X213000000Y-88250000D03*
X84500000Y-133000000D03*
X195500000Y-109750000D03*
X102000000Y-93750000D03*
X188107180Y-88892820D03*
X84500000Y-109750000D03*
X102000000Y-70500000D03*
X206000000Y-70500000D03*
X199000000Y-120151795D03*
X206000000Y-93750000D03*
X105892820Y-120000000D03*
X177303590Y-83401795D03*
X77500000Y-115250000D03*
X80607180Y-83500000D03*
X213392820Y-114607180D03*
X209500000Y-70500000D03*
X88000000Y-133000000D03*
X69803590Y-83401795D03*
X69803590Y-93750000D03*
X199053590Y-93750000D03*
X74000000Y-122500000D03*
X91500000Y-83348205D03*
X185303590Y-65250000D03*
X202446410Y-109750000D03*
X192000000Y-133000000D03*
X77803590Y-65250000D03*
X95000000Y-83348205D03*
X105500000Y-88250000D03*
X64000000Y-122500000D03*
X195500000Y-133000000D03*
X213000000Y-93705000D03*
X91553590Y-93750000D03*
X209500000Y-93750000D03*
X188500000Y-115250000D03*
X77500000Y-109795000D03*
X95053590Y-93750000D03*
X202500000Y-83348205D03*
X188500000Y-109795000D03*
X202500000Y-120151795D03*
X88000000Y-109750000D03*
X91500000Y-120151795D03*
X202553590Y-93750000D03*
X169053590Y-65250000D03*
X98500000Y-70500000D03*
X91446410Y-109750000D03*
X108696410Y-138250000D03*
X95000000Y-120151795D03*
X224196410Y-109750000D03*
X177303590Y-93750000D03*
X80607180Y-88892820D03*
X188107180Y-83500000D03*
X98500000Y-93750000D03*
X61553590Y-65250000D03*
X224196410Y-120098205D03*
X216196410Y-138250000D03*
X198946410Y-109750000D03*
X121500000Y-138250000D03*
X105500000Y-93705000D03*
X94946410Y-109750000D03*
X105892820Y-114607180D03*
X192000000Y-109750000D03*
%TD*%
D23*
%TO.N,*%
X108696410Y-138250000D02*
X121500000Y-138250000D01*
X91500000Y-83348205D02*
X91553590Y-83401795D01*
X198946410Y-120098205D02*
X198946410Y-109750000D01*
X98500000Y-93750000D02*
X98500000Y-70500000D01*
X206000000Y-93750000D02*
X206000000Y-70500000D01*
X95000000Y-83348205D02*
X95053590Y-83401795D01*
X69803590Y-83401795D02*
X69803590Y-93750000D01*
X94946410Y-120098205D02*
X94946410Y-109750000D01*
X202500000Y-83348205D02*
X202553590Y-83401795D01*
X88000000Y-109750000D02*
X88000000Y-133000000D01*
X199000000Y-120151795D02*
X198946410Y-120098205D01*
X209500000Y-93750000D02*
X209500000Y-70500000D01*
X216196410Y-138250000D02*
X232446410Y-138250000D01*
X91500000Y-120151795D02*
X91446410Y-120098205D01*
X102000000Y-93750000D02*
X102000000Y-70500000D01*
X77500000Y-109795000D02*
X77500000Y-115250000D01*
X188107180Y-88892820D02*
X188107180Y-83500000D01*
X195500000Y-109750000D02*
X195500000Y-133000000D01*
X105500000Y-88250000D02*
X105500000Y-93705000D01*
X192000000Y-109750000D02*
X192000000Y-133000000D01*
X185303590Y-65250000D02*
X169053590Y-65250000D01*
X95053590Y-83401795D02*
X95053590Y-93750000D01*
X224196410Y-120098205D02*
X224196410Y-109750000D01*
X177303590Y-83401795D02*
X177303590Y-93750000D01*
X91553590Y-83401795D02*
X91553590Y-93750000D01*
X74000000Y-122500000D02*
X64000000Y-122500000D01*
X91446410Y-120098205D02*
X91446410Y-109750000D01*
X213000000Y-88250000D02*
X213000000Y-93705000D01*
X202446410Y-120098205D02*
X202446410Y-109750000D01*
X199000000Y-83348205D02*
X199053590Y-83401795D01*
X213392820Y-114607180D02*
X213392820Y-120000000D01*
X188500000Y-115250000D02*
X188500000Y-109795000D01*
X199053590Y-83401795D02*
X199053590Y-93750000D01*
X202500000Y-120151795D02*
X202446410Y-120098205D01*
X95000000Y-120151795D02*
X94946410Y-120098205D01*
X77803590Y-65250000D02*
X61553590Y-65250000D01*
X105892820Y-114607180D02*
X105892820Y-120000000D01*
X202553590Y-83401795D02*
X202553590Y-93750000D01*
X80607180Y-88892820D02*
X80607180Y-83500000D01*
X84500000Y-109750000D02*
X84500000Y-133000000D01*
%TD*%
M02*
